<mxfile host="app.diagrams.net" agent="Mozilla/5.0 (Windows NT 10.0; Win64; x64) AppleWebKit/537.36 (KHTML, like Gecko) Chrome/135.0.0.0 Safari/537.36" version="26.2.12">
  <diagram id="C5RBs43oDa-KdzZeNtuy" name="Page-1">
    <mxGraphModel dx="1847" dy="1724" grid="1" gridSize="10" guides="1" tooltips="1" connect="1" arrows="1" fold="1" page="1" pageScale="1" pageWidth="827" pageHeight="1169" math="0" shadow="0">
      <root>
        <mxCell id="WIyWlLk6GJQsqaUBKTNV-0" />
        <mxCell id="WIyWlLk6GJQsqaUBKTNV-1" parent="WIyWlLk6GJQsqaUBKTNV-0" />
        <mxCell id="FyFoM1saeB9UCsdGW9vz-205" value="" style="whiteSpace=wrap;html=1;aspect=fixed;strokeColor=light-dark(#00994D,#FFFFFF);fillColor=light-dark(#66FF66,var(--ge-dark-color, #121212));" parent="WIyWlLk6GJQsqaUBKTNV-1" vertex="1">
          <mxGeometry x="-349.65" y="-331.00000000000006" width="304.19" height="304.19" as="geometry" />
        </mxCell>
        <mxCell id="FyFoM1saeB9UCsdGW9vz-208" value="" style="whiteSpace=wrap;html=1;aspect=fixed;" parent="WIyWlLk6GJQsqaUBKTNV-1" vertex="1">
          <mxGeometry x="-339.41999999999996" y="-310.55" width="283.74" height="283.74" as="geometry" />
        </mxCell>
        <mxCell id="oeOgtYIjhjvIpxG6j6ra-0" value="" style="sketch=0;outlineConnect=0;fontColor=#232F3E;gradientColor=none;fillColor=#232F3D;strokeColor=none;dashed=0;verticalLabelPosition=bottom;verticalAlign=top;align=center;html=1;fontSize=12;fontStyle=0;aspect=fixed;pointerEvents=1;shape=mxgraph.aws4.user;" parent="WIyWlLk6GJQsqaUBKTNV-1" vertex="1">
          <mxGeometry x="-728.12" y="-586.5" width="30" height="30" as="geometry" />
        </mxCell>
        <mxCell id="oeOgtYIjhjvIpxG6j6ra-1" value="" style="endArrow=classic;html=1;rounded=0;" parent="WIyWlLk6GJQsqaUBKTNV-1" source="oeOgtYIjhjvIpxG6j6ra-0" target="oeOgtYIjhjvIpxG6j6ra-2" edge="1">
          <mxGeometry width="50" height="50" relative="1" as="geometry">
            <mxPoint x="-688.12" y="-551" as="sourcePoint" />
            <mxPoint x="-638.12" y="-571.5" as="targetPoint" />
          </mxGeometry>
        </mxCell>
        <mxCell id="oeOgtYIjhjvIpxG6j6ra-2" value="" style="sketch=0;pointerEvents=1;shadow=0;dashed=0;html=1;strokeColor=none;fillColor=#505050;labelPosition=center;verticalLabelPosition=bottom;verticalAlign=top;outlineConnect=0;align=center;shape=mxgraph.office.devices.workstation_pc;" parent="WIyWlLk6GJQsqaUBKTNV-1" vertex="1">
          <mxGeometry x="-633.62" y="-601" width="53" height="59" as="geometry" />
        </mxCell>
        <mxCell id="oeOgtYIjhjvIpxG6j6ra-3" value="" style="whiteSpace=wrap;html=1;aspect=fixed;strokeColor=light-dark(#00994D,#FFFFFF);fillColor=light-dark(#66FF66,var(--ge-dark-color, #121212));" parent="WIyWlLk6GJQsqaUBKTNV-1" vertex="1">
          <mxGeometry x="-348.12" y="-715.19" width="304.19" height="304.19" as="geometry" />
        </mxCell>
        <mxCell id="oeOgtYIjhjvIpxG6j6ra-10" value="API Gateway (REST)" style="rounded=0;whiteSpace=wrap;html=1;fillColor=light-dark(#FFFF33,var(--ge-dark-color, #121212));shadow=0;" parent="WIyWlLk6GJQsqaUBKTNV-1" vertex="1">
          <mxGeometry x="-528.12" y="-585.99" width="119" height="29.99" as="geometry" />
        </mxCell>
        <mxCell id="oeOgtYIjhjvIpxG6j6ra-11" value="Docker" style="text;html=1;align=center;verticalAlign=middle;resizable=0;points=[];autosize=1;strokeColor=none;fillColor=none;" parent="WIyWlLk6GJQsqaUBKTNV-1" vertex="1">
          <mxGeometry x="-227.55999999999995" y="-699.49" width="60" height="30" as="geometry" />
        </mxCell>
        <mxCell id="oeOgtYIjhjvIpxG6j6ra-15" value="" style="whiteSpace=wrap;html=1;aspect=fixed;strokeColor=light-dark(#00994D,#FFFFFF);fillColor=light-dark(#66FF66,var(--ge-dark-color, #121212));" parent="WIyWlLk6GJQsqaUBKTNV-1" vertex="1">
          <mxGeometry x="61.879999999999995" y="-275.93" width="182.87" height="182.87" as="geometry" />
        </mxCell>
        <mxCell id="oeOgtYIjhjvIpxG6j6ra-17" value="" style="shape=cylinder3;whiteSpace=wrap;html=1;boundedLbl=1;backgroundOutline=1;size=15;" parent="WIyWlLk6GJQsqaUBKTNV-1" vertex="1">
          <mxGeometry x="80.92999999999995" y="-251.44" width="144.75" height="149.5" as="geometry" />
        </mxCell>
        <mxCell id="oeOgtYIjhjvIpxG6j6ra-18" value="Docker" style="text;html=1;align=center;verticalAlign=middle;resizable=0;points=[];autosize=1;strokeColor=none;fillColor=none;" parent="WIyWlLk6GJQsqaUBKTNV-1" vertex="1">
          <mxGeometry x="123.30999999999995" y="-281.00000000000006" width="60" height="30" as="geometry" />
        </mxCell>
        <mxCell id="oeOgtYIjhjvIpxG6j6ra-19" value="POSTGRES&lt;div&gt;PORT:1212&lt;/div&gt;" style="rounded=0;whiteSpace=wrap;html=1;fillColor=light-dark(#3399FF,var(--ge-dark-color, #121212));shadow=0;" parent="WIyWlLk6GJQsqaUBKTNV-1" vertex="1">
          <mxGeometry x="109.75999999999999" y="-235.99000000000007" width="87.12" height="29.5" as="geometry" />
        </mxCell>
        <mxCell id="oeOgtYIjhjvIpxG6j6ra-20" value="Database" style="text;html=1;align=center;verticalAlign=middle;resizable=0;points=[];autosize=1;strokeColor=none;fillColor=none;" parent="WIyWlLk6GJQsqaUBKTNV-1" vertex="1">
          <mxGeometry x="118.31999999999994" y="-256.50000000000006" width="70" height="30" as="geometry" />
        </mxCell>
        <mxCell id="oeOgtYIjhjvIpxG6j6ra-42" value="Table" style="shape=table;startSize=20;container=1;collapsible=0;childLayout=tableLayout;strokeColor=default;fontSize=16;" parent="WIyWlLk6GJQsqaUBKTNV-1" vertex="1">
          <mxGeometry x="94.5" y="-194.24000000000007" width="50.25" height="40" as="geometry" />
        </mxCell>
        <mxCell id="oeOgtYIjhjvIpxG6j6ra-43" value="" style="shape=tableRow;horizontal=0;startSize=0;swimlaneHead=0;swimlaneBody=0;strokeColor=inherit;top=0;left=0;bottom=0;right=0;collapsible=0;dropTarget=0;fillColor=none;points=[[0,0.5],[1,0.5]];portConstraint=eastwest;fontSize=16;" parent="oeOgtYIjhjvIpxG6j6ra-42" vertex="1">
          <mxGeometry y="20" width="50.25" height="6" as="geometry" />
        </mxCell>
        <mxCell id="oeOgtYIjhjvIpxG6j6ra-44" value="" style="shape=partialRectangle;html=1;whiteSpace=wrap;connectable=0;strokeColor=inherit;overflow=hidden;fillColor=none;top=0;left=0;bottom=0;right=0;pointerEvents=1;fontSize=16;" parent="oeOgtYIjhjvIpxG6j6ra-43" vertex="1">
          <mxGeometry width="16" height="6" as="geometry">
            <mxRectangle width="16" height="6" as="alternateBounds" />
          </mxGeometry>
        </mxCell>
        <mxCell id="oeOgtYIjhjvIpxG6j6ra-45" value="" style="shape=partialRectangle;html=1;whiteSpace=wrap;connectable=0;strokeColor=inherit;overflow=hidden;fillColor=none;top=0;left=0;bottom=0;right=0;pointerEvents=1;fontSize=16;" parent="oeOgtYIjhjvIpxG6j6ra-43" vertex="1">
          <mxGeometry x="16" width="14" height="6" as="geometry">
            <mxRectangle width="14" height="6" as="alternateBounds" />
          </mxGeometry>
        </mxCell>
        <mxCell id="oeOgtYIjhjvIpxG6j6ra-46" value="" style="shape=partialRectangle;html=1;whiteSpace=wrap;connectable=0;strokeColor=inherit;overflow=hidden;fillColor=none;top=0;left=0;bottom=0;right=0;pointerEvents=1;fontSize=16;" parent="oeOgtYIjhjvIpxG6j6ra-43" vertex="1">
          <mxGeometry x="30" width="20" height="6" as="geometry">
            <mxRectangle width="20" height="6" as="alternateBounds" />
          </mxGeometry>
        </mxCell>
        <mxCell id="oeOgtYIjhjvIpxG6j6ra-47" value="" style="shape=tableRow;horizontal=0;startSize=0;swimlaneHead=0;swimlaneBody=0;strokeColor=inherit;top=0;left=0;bottom=0;right=0;collapsible=0;dropTarget=0;fillColor=none;points=[[0,0.5],[1,0.5]];portConstraint=eastwest;fontSize=16;" parent="oeOgtYIjhjvIpxG6j6ra-42" vertex="1">
          <mxGeometry y="26" width="50.25" height="8" as="geometry" />
        </mxCell>
        <mxCell id="oeOgtYIjhjvIpxG6j6ra-48" value="" style="shape=partialRectangle;html=1;whiteSpace=wrap;connectable=0;strokeColor=inherit;overflow=hidden;fillColor=none;top=0;left=0;bottom=0;right=0;pointerEvents=1;fontSize=16;" parent="oeOgtYIjhjvIpxG6j6ra-47" vertex="1">
          <mxGeometry width="16" height="8" as="geometry">
            <mxRectangle width="16" height="8" as="alternateBounds" />
          </mxGeometry>
        </mxCell>
        <mxCell id="oeOgtYIjhjvIpxG6j6ra-49" value="" style="shape=partialRectangle;html=1;whiteSpace=wrap;connectable=0;strokeColor=inherit;overflow=hidden;fillColor=none;top=0;left=0;bottom=0;right=0;pointerEvents=1;fontSize=16;" parent="oeOgtYIjhjvIpxG6j6ra-47" vertex="1">
          <mxGeometry x="16" width="14" height="8" as="geometry">
            <mxRectangle width="14" height="8" as="alternateBounds" />
          </mxGeometry>
        </mxCell>
        <mxCell id="oeOgtYIjhjvIpxG6j6ra-50" value="" style="shape=partialRectangle;html=1;whiteSpace=wrap;connectable=0;strokeColor=inherit;overflow=hidden;fillColor=none;top=0;left=0;bottom=0;right=0;pointerEvents=1;fontSize=16;" parent="oeOgtYIjhjvIpxG6j6ra-47" vertex="1">
          <mxGeometry x="30" width="20" height="8" as="geometry">
            <mxRectangle width="20" height="8" as="alternateBounds" />
          </mxGeometry>
        </mxCell>
        <mxCell id="oeOgtYIjhjvIpxG6j6ra-51" value="" style="shape=tableRow;horizontal=0;startSize=0;swimlaneHead=0;swimlaneBody=0;strokeColor=inherit;top=0;left=0;bottom=0;right=0;collapsible=0;dropTarget=0;fillColor=none;points=[[0,0.5],[1,0.5]];portConstraint=eastwest;fontSize=16;" parent="oeOgtYIjhjvIpxG6j6ra-42" vertex="1">
          <mxGeometry y="34" width="50.25" height="6" as="geometry" />
        </mxCell>
        <mxCell id="oeOgtYIjhjvIpxG6j6ra-52" value="" style="shape=partialRectangle;html=1;whiteSpace=wrap;connectable=0;strokeColor=inherit;overflow=hidden;fillColor=none;top=0;left=0;bottom=0;right=0;pointerEvents=1;fontSize=16;" parent="oeOgtYIjhjvIpxG6j6ra-51" vertex="1">
          <mxGeometry width="16" height="6" as="geometry">
            <mxRectangle width="16" height="6" as="alternateBounds" />
          </mxGeometry>
        </mxCell>
        <mxCell id="oeOgtYIjhjvIpxG6j6ra-53" value="" style="shape=partialRectangle;html=1;whiteSpace=wrap;connectable=0;strokeColor=inherit;overflow=hidden;fillColor=none;top=0;left=0;bottom=0;right=0;pointerEvents=1;fontSize=16;" parent="oeOgtYIjhjvIpxG6j6ra-51" vertex="1">
          <mxGeometry x="16" width="14" height="6" as="geometry">
            <mxRectangle width="14" height="6" as="alternateBounds" />
          </mxGeometry>
        </mxCell>
        <mxCell id="oeOgtYIjhjvIpxG6j6ra-54" value="" style="shape=partialRectangle;html=1;whiteSpace=wrap;connectable=0;strokeColor=inherit;overflow=hidden;fillColor=none;top=0;left=0;bottom=0;right=0;pointerEvents=1;fontSize=16;" parent="oeOgtYIjhjvIpxG6j6ra-51" vertex="1">
          <mxGeometry x="30" width="20" height="6" as="geometry">
            <mxRectangle width="20" height="6" as="alternateBounds" />
          </mxGeometry>
        </mxCell>
        <mxCell id="oeOgtYIjhjvIpxG6j6ra-55" value="Table" style="shape=table;startSize=21;container=1;collapsible=0;childLayout=tableLayout;strokeColor=default;fontSize=16;" parent="WIyWlLk6GJQsqaUBKTNV-1" vertex="1">
          <mxGeometry x="128.30999999999995" y="-151.50000000000006" width="50" height="40" as="geometry" />
        </mxCell>
        <mxCell id="oeOgtYIjhjvIpxG6j6ra-56" value="" style="shape=tableRow;horizontal=0;startSize=0;swimlaneHead=0;swimlaneBody=0;strokeColor=inherit;top=0;left=0;bottom=0;right=0;collapsible=0;dropTarget=0;fillColor=none;points=[[0,0.5],[1,0.5]];portConstraint=eastwest;fontSize=16;" parent="oeOgtYIjhjvIpxG6j6ra-55" vertex="1">
          <mxGeometry y="21" width="50" height="6" as="geometry" />
        </mxCell>
        <mxCell id="oeOgtYIjhjvIpxG6j6ra-57" value="" style="shape=partialRectangle;html=1;whiteSpace=wrap;connectable=0;strokeColor=inherit;overflow=hidden;fillColor=none;top=0;left=0;bottom=0;right=0;pointerEvents=1;fontSize=16;" parent="oeOgtYIjhjvIpxG6j6ra-56" vertex="1">
          <mxGeometry width="16" height="6" as="geometry">
            <mxRectangle width="16" height="6" as="alternateBounds" />
          </mxGeometry>
        </mxCell>
        <mxCell id="oeOgtYIjhjvIpxG6j6ra-58" value="" style="shape=partialRectangle;html=1;whiteSpace=wrap;connectable=0;strokeColor=inherit;overflow=hidden;fillColor=none;top=0;left=0;bottom=0;right=0;pointerEvents=1;fontSize=16;" parent="oeOgtYIjhjvIpxG6j6ra-56" vertex="1">
          <mxGeometry x="16" width="18" height="6" as="geometry">
            <mxRectangle width="18" height="6" as="alternateBounds" />
          </mxGeometry>
        </mxCell>
        <mxCell id="oeOgtYIjhjvIpxG6j6ra-59" value="" style="shape=partialRectangle;html=1;whiteSpace=wrap;connectable=0;strokeColor=inherit;overflow=hidden;fillColor=none;top=0;left=0;bottom=0;right=0;pointerEvents=1;fontSize=16;" parent="oeOgtYIjhjvIpxG6j6ra-56" vertex="1">
          <mxGeometry x="34" width="16" height="6" as="geometry">
            <mxRectangle width="16" height="6" as="alternateBounds" />
          </mxGeometry>
        </mxCell>
        <mxCell id="oeOgtYIjhjvIpxG6j6ra-60" value="" style="shape=tableRow;horizontal=0;startSize=0;swimlaneHead=0;swimlaneBody=0;strokeColor=inherit;top=0;left=0;bottom=0;right=0;collapsible=0;dropTarget=0;fillColor=none;points=[[0,0.5],[1,0.5]];portConstraint=eastwest;fontSize=16;" parent="oeOgtYIjhjvIpxG6j6ra-55" vertex="1">
          <mxGeometry y="27" width="50" height="7" as="geometry" />
        </mxCell>
        <mxCell id="oeOgtYIjhjvIpxG6j6ra-61" value="" style="shape=partialRectangle;html=1;whiteSpace=wrap;connectable=0;strokeColor=inherit;overflow=hidden;fillColor=none;top=0;left=0;bottom=0;right=0;pointerEvents=1;fontSize=16;" parent="oeOgtYIjhjvIpxG6j6ra-60" vertex="1">
          <mxGeometry width="16" height="7" as="geometry">
            <mxRectangle width="16" height="7" as="alternateBounds" />
          </mxGeometry>
        </mxCell>
        <mxCell id="oeOgtYIjhjvIpxG6j6ra-62" value="" style="shape=partialRectangle;html=1;whiteSpace=wrap;connectable=0;strokeColor=inherit;overflow=hidden;fillColor=none;top=0;left=0;bottom=0;right=0;pointerEvents=1;fontSize=16;" parent="oeOgtYIjhjvIpxG6j6ra-60" vertex="1">
          <mxGeometry x="16" width="18" height="7" as="geometry">
            <mxRectangle width="18" height="7" as="alternateBounds" />
          </mxGeometry>
        </mxCell>
        <mxCell id="oeOgtYIjhjvIpxG6j6ra-63" value="" style="shape=partialRectangle;html=1;whiteSpace=wrap;connectable=0;strokeColor=inherit;overflow=hidden;fillColor=none;top=0;left=0;bottom=0;right=0;pointerEvents=1;fontSize=16;" parent="oeOgtYIjhjvIpxG6j6ra-60" vertex="1">
          <mxGeometry x="34" width="16" height="7" as="geometry">
            <mxRectangle width="16" height="7" as="alternateBounds" />
          </mxGeometry>
        </mxCell>
        <mxCell id="oeOgtYIjhjvIpxG6j6ra-64" value="" style="shape=tableRow;horizontal=0;startSize=0;swimlaneHead=0;swimlaneBody=0;strokeColor=inherit;top=0;left=0;bottom=0;right=0;collapsible=0;dropTarget=0;fillColor=none;points=[[0,0.5],[1,0.5]];portConstraint=eastwest;fontSize=16;" parent="oeOgtYIjhjvIpxG6j6ra-55" vertex="1">
          <mxGeometry y="34" width="50" height="6" as="geometry" />
        </mxCell>
        <mxCell id="oeOgtYIjhjvIpxG6j6ra-65" value="" style="shape=partialRectangle;html=1;whiteSpace=wrap;connectable=0;strokeColor=inherit;overflow=hidden;fillColor=none;top=0;left=0;bottom=0;right=0;pointerEvents=1;fontSize=16;" parent="oeOgtYIjhjvIpxG6j6ra-64" vertex="1">
          <mxGeometry width="16" height="6" as="geometry">
            <mxRectangle width="16" height="6" as="alternateBounds" />
          </mxGeometry>
        </mxCell>
        <mxCell id="oeOgtYIjhjvIpxG6j6ra-66" value="" style="shape=partialRectangle;html=1;whiteSpace=wrap;connectable=0;strokeColor=inherit;overflow=hidden;fillColor=none;top=0;left=0;bottom=0;right=0;pointerEvents=1;fontSize=16;" parent="oeOgtYIjhjvIpxG6j6ra-64" vertex="1">
          <mxGeometry x="16" width="18" height="6" as="geometry">
            <mxRectangle width="18" height="6" as="alternateBounds" />
          </mxGeometry>
        </mxCell>
        <mxCell id="oeOgtYIjhjvIpxG6j6ra-67" value="" style="shape=partialRectangle;html=1;whiteSpace=wrap;connectable=0;strokeColor=inherit;overflow=hidden;fillColor=none;top=0;left=0;bottom=0;right=0;pointerEvents=1;fontSize=16;" parent="oeOgtYIjhjvIpxG6j6ra-64" vertex="1">
          <mxGeometry x="34" width="16" height="6" as="geometry">
            <mxRectangle width="16" height="6" as="alternateBounds" />
          </mxGeometry>
        </mxCell>
        <mxCell id="oeOgtYIjhjvIpxG6j6ra-68" value="Table" style="shape=table;startSize=20;container=1;collapsible=0;childLayout=tableLayout;strokeColor=default;fontSize=16;" parent="WIyWlLk6GJQsqaUBKTNV-1" vertex="1">
          <mxGeometry x="156.87" y="-194.24000000000007" width="50" height="40" as="geometry" />
        </mxCell>
        <mxCell id="oeOgtYIjhjvIpxG6j6ra-69" value="" style="shape=tableRow;horizontal=0;startSize=0;swimlaneHead=0;swimlaneBody=0;strokeColor=inherit;top=0;left=0;bottom=0;right=0;collapsible=0;dropTarget=0;fillColor=none;points=[[0,0.5],[1,0.5]];portConstraint=eastwest;fontSize=16;" parent="oeOgtYIjhjvIpxG6j6ra-68" vertex="1">
          <mxGeometry y="20" width="50" height="6" as="geometry" />
        </mxCell>
        <mxCell id="oeOgtYIjhjvIpxG6j6ra-70" value="" style="shape=partialRectangle;html=1;whiteSpace=wrap;connectable=0;strokeColor=inherit;overflow=hidden;fillColor=none;top=0;left=0;bottom=0;right=0;pointerEvents=1;fontSize=16;" parent="oeOgtYIjhjvIpxG6j6ra-69" vertex="1">
          <mxGeometry width="16" height="6" as="geometry">
            <mxRectangle width="16" height="6" as="alternateBounds" />
          </mxGeometry>
        </mxCell>
        <mxCell id="oeOgtYIjhjvIpxG6j6ra-71" value="" style="shape=partialRectangle;html=1;whiteSpace=wrap;connectable=0;strokeColor=inherit;overflow=hidden;fillColor=none;top=0;left=0;bottom=0;right=0;pointerEvents=1;fontSize=16;" parent="oeOgtYIjhjvIpxG6j6ra-69" vertex="1">
          <mxGeometry x="16" width="18" height="6" as="geometry">
            <mxRectangle width="18" height="6" as="alternateBounds" />
          </mxGeometry>
        </mxCell>
        <mxCell id="oeOgtYIjhjvIpxG6j6ra-72" value="" style="shape=partialRectangle;html=1;whiteSpace=wrap;connectable=0;strokeColor=inherit;overflow=hidden;fillColor=none;top=0;left=0;bottom=0;right=0;pointerEvents=1;fontSize=16;" parent="oeOgtYIjhjvIpxG6j6ra-69" vertex="1">
          <mxGeometry x="34" width="16" height="6" as="geometry">
            <mxRectangle width="16" height="6" as="alternateBounds" />
          </mxGeometry>
        </mxCell>
        <mxCell id="oeOgtYIjhjvIpxG6j6ra-73" value="" style="shape=tableRow;horizontal=0;startSize=0;swimlaneHead=0;swimlaneBody=0;strokeColor=inherit;top=0;left=0;bottom=0;right=0;collapsible=0;dropTarget=0;fillColor=none;points=[[0,0.5],[1,0.5]];portConstraint=eastwest;fontSize=16;" parent="oeOgtYIjhjvIpxG6j6ra-68" vertex="1">
          <mxGeometry y="26" width="50" height="8" as="geometry" />
        </mxCell>
        <mxCell id="oeOgtYIjhjvIpxG6j6ra-74" value="" style="shape=partialRectangle;html=1;whiteSpace=wrap;connectable=0;strokeColor=inherit;overflow=hidden;fillColor=none;top=0;left=0;bottom=0;right=0;pointerEvents=1;fontSize=16;" parent="oeOgtYIjhjvIpxG6j6ra-73" vertex="1">
          <mxGeometry width="16" height="8" as="geometry">
            <mxRectangle width="16" height="8" as="alternateBounds" />
          </mxGeometry>
        </mxCell>
        <mxCell id="oeOgtYIjhjvIpxG6j6ra-75" value="" style="shape=partialRectangle;html=1;whiteSpace=wrap;connectable=0;strokeColor=inherit;overflow=hidden;fillColor=none;top=0;left=0;bottom=0;right=0;pointerEvents=1;fontSize=16;" parent="oeOgtYIjhjvIpxG6j6ra-73" vertex="1">
          <mxGeometry x="16" width="18" height="8" as="geometry">
            <mxRectangle width="18" height="8" as="alternateBounds" />
          </mxGeometry>
        </mxCell>
        <mxCell id="oeOgtYIjhjvIpxG6j6ra-76" value="" style="shape=partialRectangle;html=1;whiteSpace=wrap;connectable=0;strokeColor=inherit;overflow=hidden;fillColor=none;top=0;left=0;bottom=0;right=0;pointerEvents=1;fontSize=16;" parent="oeOgtYIjhjvIpxG6j6ra-73" vertex="1">
          <mxGeometry x="34" width="16" height="8" as="geometry">
            <mxRectangle width="16" height="8" as="alternateBounds" />
          </mxGeometry>
        </mxCell>
        <mxCell id="oeOgtYIjhjvIpxG6j6ra-77" value="" style="shape=tableRow;horizontal=0;startSize=0;swimlaneHead=0;swimlaneBody=0;strokeColor=inherit;top=0;left=0;bottom=0;right=0;collapsible=0;dropTarget=0;fillColor=none;points=[[0,0.5],[1,0.5]];portConstraint=eastwest;fontSize=16;" parent="oeOgtYIjhjvIpxG6j6ra-68" vertex="1">
          <mxGeometry y="34" width="50" height="6" as="geometry" />
        </mxCell>
        <mxCell id="oeOgtYIjhjvIpxG6j6ra-78" value="" style="shape=partialRectangle;html=1;whiteSpace=wrap;connectable=0;strokeColor=inherit;overflow=hidden;fillColor=none;top=0;left=0;bottom=0;right=0;pointerEvents=1;fontSize=16;" parent="oeOgtYIjhjvIpxG6j6ra-77" vertex="1">
          <mxGeometry width="16" height="6" as="geometry">
            <mxRectangle width="16" height="6" as="alternateBounds" />
          </mxGeometry>
        </mxCell>
        <mxCell id="oeOgtYIjhjvIpxG6j6ra-79" value="" style="shape=partialRectangle;html=1;whiteSpace=wrap;connectable=0;strokeColor=inherit;overflow=hidden;fillColor=none;top=0;left=0;bottom=0;right=0;pointerEvents=1;fontSize=16;" parent="oeOgtYIjhjvIpxG6j6ra-77" vertex="1">
          <mxGeometry x="16" width="18" height="6" as="geometry">
            <mxRectangle width="18" height="6" as="alternateBounds" />
          </mxGeometry>
        </mxCell>
        <mxCell id="oeOgtYIjhjvIpxG6j6ra-80" value="" style="shape=partialRectangle;html=1;whiteSpace=wrap;connectable=0;strokeColor=inherit;overflow=hidden;fillColor=none;top=0;left=0;bottom=0;right=0;pointerEvents=1;fontSize=16;" parent="oeOgtYIjhjvIpxG6j6ra-77" vertex="1">
          <mxGeometry x="34" width="16" height="6" as="geometry">
            <mxRectangle width="16" height="6" as="alternateBounds" />
          </mxGeometry>
        </mxCell>
        <mxCell id="oeOgtYIjhjvIpxG6j6ra-85" value="" style="endArrow=classic;html=1;rounded=0;entryX=-0.019;entryY=0.45;entryDx=0;entryDy=0;entryPerimeter=0;" parent="WIyWlLk6GJQsqaUBKTNV-1" source="oeOgtYIjhjvIpxG6j6ra-2" target="oeOgtYIjhjvIpxG6j6ra-10" edge="1">
          <mxGeometry width="50" height="50" relative="1" as="geometry">
            <mxPoint x="-585.12" y="-571.8244039192996" as="sourcePoint" />
            <mxPoint x="-548.12" y="-571" as="targetPoint" />
          </mxGeometry>
        </mxCell>
        <mxCell id="oeOgtYIjhjvIpxG6j6ra-87" value="" style="whiteSpace=wrap;html=1;aspect=fixed;" parent="WIyWlLk6GJQsqaUBKTNV-1" vertex="1">
          <mxGeometry x="-320.42999999999995" y="-675.24" width="254.24" height="254.24" as="geometry" />
        </mxCell>
        <mxCell id="oeOgtYIjhjvIpxG6j6ra-83" value="PORT:6000" style="rounded=0;whiteSpace=wrap;html=1;fillColor=light-dark(#3399FF,var(--ge-dark-color, #121212));shadow=0;" parent="WIyWlLk6GJQsqaUBKTNV-1" vertex="1">
          <mxGeometry x="-252.67999999999995" y="-669.49" width="119" height="20" as="geometry" />
        </mxCell>
        <mxCell id="oeOgtYIjhjvIpxG6j6ra-9" value="Backend(user)" style="text;html=1;align=center;verticalAlign=middle;resizable=0;points=[];autosize=1;strokeColor=none;fillColor=none;" parent="WIyWlLk6GJQsqaUBKTNV-1" vertex="1">
          <mxGeometry x="-243.17999999999995" y="-720" width="100" height="30" as="geometry" />
        </mxCell>
        <mxCell id="oeOgtYIjhjvIpxG6j6ra-90" value="&lt;font style=&quot;font-size: 24px;&quot;&gt;BACKEND-Server&amp;nbsp;&lt;/font&gt;&lt;div&gt;&lt;font style=&quot;font-size: 24px;&quot;&gt;(Structure Class)&lt;/font&gt;&lt;/div&gt;" style="text;html=1;align=center;verticalAlign=middle;resizable=0;points=[];autosize=1;strokeColor=none;fillColor=none;" parent="WIyWlLk6GJQsqaUBKTNV-1" vertex="1">
          <mxGeometry x="484.63" y="330" width="220" height="70" as="geometry" />
        </mxCell>
        <mxCell id="oeOgtYIjhjvIpxG6j6ra-94" value="" style="whiteSpace=wrap;html=1;aspect=fixed;fillColor=light-dark(#9999FF,var(--ge-dark-color, #121212));" parent="WIyWlLk6GJQsqaUBKTNV-1" vertex="1">
          <mxGeometry x="262.25" y="510" width="155" height="155" as="geometry" />
        </mxCell>
        <mxCell id="oeOgtYIjhjvIpxG6j6ra-92" value="ControllerManagement&amp;nbsp;" style="rounded=0;whiteSpace=wrap;html=1;" parent="WIyWlLk6GJQsqaUBKTNV-1" vertex="1">
          <mxGeometry x="274.75" y="550" width="130" height="40" as="geometry" />
        </mxCell>
        <mxCell id="oeOgtYIjhjvIpxG6j6ra-93" value="ControllerAccount&amp;nbsp;" style="rounded=0;whiteSpace=wrap;html=1;" parent="WIyWlLk6GJQsqaUBKTNV-1" vertex="1">
          <mxGeometry x="284.75" y="600" width="110" height="30" as="geometry" />
        </mxCell>
        <mxCell id="oeOgtYIjhjvIpxG6j6ra-96" value="Conrollers" style="text;html=1;align=center;verticalAlign=middle;resizable=0;points=[];autosize=1;strokeColor=none;fillColor=none;" parent="WIyWlLk6GJQsqaUBKTNV-1" vertex="1">
          <mxGeometry x="299.75" y="510" width="80" height="30" as="geometry" />
        </mxCell>
        <mxCell id="oeOgtYIjhjvIpxG6j6ra-97" value="" style="endArrow=classic;html=1;rounded=0;exitX=1;exitY=1;exitDx=0;exitDy=0;entryX=0.004;entryY=0.454;entryDx=0;entryDy=0;entryPerimeter=0;" parent="WIyWlLk6GJQsqaUBKTNV-1" source="oeOgtYIjhjvIpxG6j6ra-94" target="oeOgtYIjhjvIpxG6j6ra-98" edge="1">
          <mxGeometry width="50" height="50" relative="1" as="geometry">
            <mxPoint x="534.75" y="740" as="sourcePoint" />
            <mxPoint x="504.75" y="710" as="targetPoint" />
          </mxGeometry>
        </mxCell>
        <mxCell id="oeOgtYIjhjvIpxG6j6ra-98" value="" style="whiteSpace=wrap;html=1;aspect=fixed;fillColor=light-dark(#9999FF,var(--ge-dark-color, #121212));" parent="WIyWlLk6GJQsqaUBKTNV-1" vertex="1">
          <mxGeometry x="517.13" y="650" width="155" height="155" as="geometry" />
        </mxCell>
        <mxCell id="oeOgtYIjhjvIpxG6j6ra-99" value="Services" style="text;html=1;align=center;verticalAlign=middle;resizable=0;points=[];autosize=1;strokeColor=none;fillColor=none;" parent="WIyWlLk6GJQsqaUBKTNV-1" vertex="1">
          <mxGeometry x="561.63" y="655" width="70" height="30" as="geometry" />
        </mxCell>
        <mxCell id="oeOgtYIjhjvIpxG6j6ra-100" value="ManagementService" style="rounded=0;whiteSpace=wrap;html=1;" parent="WIyWlLk6GJQsqaUBKTNV-1" vertex="1">
          <mxGeometry x="531.63" y="685" width="130" height="40" as="geometry" />
        </mxCell>
        <mxCell id="oeOgtYIjhjvIpxG6j6ra-101" value="AccountService" style="rounded=0;whiteSpace=wrap;html=1;" parent="WIyWlLk6GJQsqaUBKTNV-1" vertex="1">
          <mxGeometry x="539.63" y="740" width="110" height="30" as="geometry" />
        </mxCell>
        <mxCell id="oeOgtYIjhjvIpxG6j6ra-103" value="" style="whiteSpace=wrap;html=1;aspect=fixed;fillColor=light-dark(#9999FF,var(--ge-dark-color, #121212));" parent="WIyWlLk6GJQsqaUBKTNV-1" vertex="1">
          <mxGeometry x="517.13" y="460" width="155" height="155" as="geometry" />
        </mxCell>
        <mxCell id="oeOgtYIjhjvIpxG6j6ra-104" value="Utils" style="text;html=1;align=center;verticalAlign=middle;resizable=0;points=[];autosize=1;strokeColor=none;fillColor=none;" parent="WIyWlLk6GJQsqaUBKTNV-1" vertex="1">
          <mxGeometry x="567.63" y="410" width="50" height="30" as="geometry" />
        </mxCell>
        <mxCell id="oeOgtYIjhjvIpxG6j6ra-105" value="ServiceUtil" style="rounded=0;whiteSpace=wrap;html=1;" parent="WIyWlLk6GJQsqaUBKTNV-1" vertex="1">
          <mxGeometry x="531.63" y="517.5" width="130" height="40" as="geometry" />
        </mxCell>
        <mxCell id="oeOgtYIjhjvIpxG6j6ra-107" value="" style="endArrow=classic;html=1;rounded=0;exitX=0.5;exitY=0;exitDx=0;exitDy=0;entryX=0.5;entryY=1;entryDx=0;entryDy=0;" parent="WIyWlLk6GJQsqaUBKTNV-1" source="oeOgtYIjhjvIpxG6j6ra-98" target="oeOgtYIjhjvIpxG6j6ra-103" edge="1">
          <mxGeometry width="50" height="50" relative="1" as="geometry">
            <mxPoint x="614.75" y="630" as="sourcePoint" />
            <mxPoint x="734.75" y="590" as="targetPoint" />
          </mxGeometry>
        </mxCell>
        <mxCell id="oeOgtYIjhjvIpxG6j6ra-108" value="" style="whiteSpace=wrap;html=1;aspect=fixed;fillColor=light-dark(#9999FF,var(--ge-dark-color, #121212));" parent="WIyWlLk6GJQsqaUBKTNV-1" vertex="1">
          <mxGeometry x="214.75" y="820" width="190" height="190" as="geometry" />
        </mxCell>
        <mxCell id="oeOgtYIjhjvIpxG6j6ra-109" value="DTOS" style="text;html=1;align=center;verticalAlign=middle;resizable=0;points=[];autosize=1;strokeColor=none;fillColor=none;" parent="WIyWlLk6GJQsqaUBKTNV-1" vertex="1">
          <mxGeometry x="279.75" y="830" width="60" height="30" as="geometry" />
        </mxCell>
        <mxCell id="oeOgtYIjhjvIpxG6j6ra-110" value="UserDataBalanceDTO" style="rounded=0;whiteSpace=wrap;html=1;" parent="WIyWlLk6GJQsqaUBKTNV-1" vertex="1">
          <mxGeometry x="244.75" y="910" width="130" height="40" as="geometry" />
        </mxCell>
        <mxCell id="oeOgtYIjhjvIpxG6j6ra-111" value="UserDataDTO" style="rounded=0;whiteSpace=wrap;html=1;" parent="WIyWlLk6GJQsqaUBKTNV-1" vertex="1">
          <mxGeometry x="244.75" y="870" width="130" height="40" as="geometry" />
        </mxCell>
        <mxCell id="oeOgtYIjhjvIpxG6j6ra-112" value="UserRequestDTO" style="rounded=0;whiteSpace=wrap;html=1;" parent="WIyWlLk6GJQsqaUBKTNV-1" vertex="1">
          <mxGeometry x="244.75" y="950" width="130" height="40" as="geometry" />
        </mxCell>
        <mxCell id="oeOgtYIjhjvIpxG6j6ra-113" value="" style="endArrow=classic;html=1;rounded=0;exitX=0.5;exitY=0;exitDx=0;exitDy=0;entryX=0.313;entryY=0.988;entryDx=0;entryDy=0;entryPerimeter=0;" parent="WIyWlLk6GJQsqaUBKTNV-1" source="oeOgtYIjhjvIpxG6j6ra-108" target="oeOgtYIjhjvIpxG6j6ra-94" edge="1">
          <mxGeometry width="50" height="50" relative="1" as="geometry">
            <mxPoint x="324.75" y="770" as="sourcePoint" />
            <mxPoint x="374.75" y="720" as="targetPoint" />
          </mxGeometry>
        </mxCell>
        <mxCell id="oeOgtYIjhjvIpxG6j6ra-114" value="" style="endArrow=classic;html=1;rounded=0;exitX=1;exitY=0;exitDx=0;exitDy=0;entryX=-0.015;entryY=0.645;entryDx=0;entryDy=0;entryPerimeter=0;" parent="WIyWlLk6GJQsqaUBKTNV-1" source="oeOgtYIjhjvIpxG6j6ra-108" target="oeOgtYIjhjvIpxG6j6ra-98" edge="1">
          <mxGeometry width="50" height="50" relative="1" as="geometry">
            <mxPoint x="434.75" y="840" as="sourcePoint" />
            <mxPoint x="484.75" y="790" as="targetPoint" />
          </mxGeometry>
        </mxCell>
        <mxCell id="oeOgtYIjhjvIpxG6j6ra-115" value="" style="whiteSpace=wrap;html=1;aspect=fixed;fillColor=light-dark(#9999FF,var(--ge-dark-color, #121212));" parent="WIyWlLk6GJQsqaUBKTNV-1" vertex="1">
          <mxGeometry x="745.93" y="830" width="190" height="190" as="geometry" />
        </mxCell>
        <mxCell id="oeOgtYIjhjvIpxG6j6ra-116" value="Repositorys" style="text;html=1;align=center;verticalAlign=middle;resizable=0;points=[];autosize=1;strokeColor=none;fillColor=none;" parent="WIyWlLk6GJQsqaUBKTNV-1" vertex="1">
          <mxGeometry x="797.12" y="830" width="90" height="30" as="geometry" />
        </mxCell>
        <mxCell id="oeOgtYIjhjvIpxG6j6ra-118" value="UserBalanceTableRepository" style="rounded=0;whiteSpace=wrap;html=1;" parent="WIyWlLk6GJQsqaUBKTNV-1" vertex="1">
          <mxGeometry x="767.1199999999999" y="900" width="151.19" height="40" as="geometry" />
        </mxCell>
        <mxCell id="oeOgtYIjhjvIpxG6j6ra-119" value="UserDataRepository" style="rounded=0;whiteSpace=wrap;html=1;" parent="WIyWlLk6GJQsqaUBKTNV-1" vertex="1">
          <mxGeometry x="767.1199999999999" y="940" width="151.19" height="40" as="geometry" />
        </mxCell>
        <mxCell id="oeOgtYIjhjvIpxG6j6ra-122" value="" style="whiteSpace=wrap;html=1;aspect=fixed;fillColor=light-dark(#9999FF,var(--ge-dark-color, #121212));" parent="WIyWlLk6GJQsqaUBKTNV-1" vertex="1">
          <mxGeometry x="797.12" y="570" width="190" height="190" as="geometry" />
        </mxCell>
        <mxCell id="oeOgtYIjhjvIpxG6j6ra-123" value="Domains" style="text;html=1;align=center;verticalAlign=middle;resizable=0;points=[];autosize=1;strokeColor=none;fillColor=none;" parent="WIyWlLk6GJQsqaUBKTNV-1" vertex="1">
          <mxGeometry x="857.12" y="570" width="70" height="30" as="geometry" />
        </mxCell>
        <mxCell id="oeOgtYIjhjvIpxG6j6ra-124" value="UserAuthTokenRepository" style="rounded=0;whiteSpace=wrap;html=1;" parent="WIyWlLk6GJQsqaUBKTNV-1" vertex="1">
          <mxGeometry x="767.1199999999999" y="860" width="151.19" height="40" as="geometry" />
        </mxCell>
        <mxCell id="oeOgtYIjhjvIpxG6j6ra-125" value="UserAuthTokenTable" style="rounded=0;whiteSpace=wrap;html=1;" parent="WIyWlLk6GJQsqaUBKTNV-1" vertex="1">
          <mxGeometry x="816.5299999999999" y="600" width="151.19" height="40" as="geometry" />
        </mxCell>
        <mxCell id="oeOgtYIjhjvIpxG6j6ra-126" value="UserBalanceDataTable" style="rounded=0;whiteSpace=wrap;html=1;" parent="WIyWlLk6GJQsqaUBKTNV-1" vertex="1">
          <mxGeometry x="816.5299999999999" y="640" width="151.19" height="40" as="geometry" />
        </mxCell>
        <mxCell id="oeOgtYIjhjvIpxG6j6ra-127" value="UsersDataTable" style="rounded=0;whiteSpace=wrap;html=1;" parent="WIyWlLk6GJQsqaUBKTNV-1" vertex="1">
          <mxGeometry x="816.5299999999999" y="680" width="151.19" height="40" as="geometry" />
        </mxCell>
        <mxCell id="oeOgtYIjhjvIpxG6j6ra-128" value="" style="endArrow=classic;html=1;rounded=0;exitX=-0.008;exitY=0.585;exitDx=0;exitDy=0;exitPerimeter=0;entryX=1;entryY=0.25;entryDx=0;entryDy=0;" parent="WIyWlLk6GJQsqaUBKTNV-1" source="oeOgtYIjhjvIpxG6j6ra-122" target="oeOgtYIjhjvIpxG6j6ra-98" edge="1">
          <mxGeometry width="50" height="50" relative="1" as="geometry">
            <mxPoint x="717.12" y="700" as="sourcePoint" />
            <mxPoint x="767.12" y="650" as="targetPoint" />
          </mxGeometry>
        </mxCell>
        <mxCell id="oeOgtYIjhjvIpxG6j6ra-129" value="" style="endArrow=classic;html=1;rounded=0;exitX=0.417;exitY=1.019;exitDx=0;exitDy=0;exitPerimeter=0;entryX=0.52;entryY=0;entryDx=0;entryDy=0;entryPerimeter=0;" parent="WIyWlLk6GJQsqaUBKTNV-1" source="oeOgtYIjhjvIpxG6j6ra-122" target="oeOgtYIjhjvIpxG6j6ra-115" edge="1">
          <mxGeometry width="50" height="50" relative="1" as="geometry">
            <mxPoint x="1114.75" y="770" as="sourcePoint" />
            <mxPoint x="844.75" y="820" as="targetPoint" />
          </mxGeometry>
        </mxCell>
        <mxCell id="oeOgtYIjhjvIpxG6j6ra-131" value="" style="endArrow=classic;html=1;rounded=0;exitX=0.978;exitY=0.855;exitDx=0;exitDy=0;exitPerimeter=0;entryX=0;entryY=0;entryDx=0;entryDy=0;" parent="WIyWlLk6GJQsqaUBKTNV-1" target="oeOgtYIjhjvIpxG6j6ra-94" edge="1">
          <mxGeometry width="50" height="50" relative="1" as="geometry">
            <mxPoint x="206.44219999999996" y="476.1700000000001" as="sourcePoint" />
            <mxPoint x="304.75" y="430" as="targetPoint" />
          </mxGeometry>
        </mxCell>
        <mxCell id="oeOgtYIjhjvIpxG6j6ra-133" value="DB" style="shape=cylinder3;whiteSpace=wrap;html=1;boundedLbl=1;backgroundOutline=1;size=15;" parent="WIyWlLk6GJQsqaUBKTNV-1" vertex="1">
          <mxGeometry x="1054.75" y="880" width="90" height="110" as="geometry" />
        </mxCell>
        <mxCell id="e8RXQ8KWZUFYF5CIdZ4l-0" value="" style="endArrow=classic;html=1;rounded=0;exitX=1;exitY=1;exitDx=0;exitDy=0;entryX=0;entryY=0;entryDx=0;entryDy=0;" parent="WIyWlLk6GJQsqaUBKTNV-1" source="oeOgtYIjhjvIpxG6j6ra-98" target="oeOgtYIjhjvIpxG6j6ra-115" edge="1">
          <mxGeometry width="50" height="50" relative="1" as="geometry">
            <mxPoint x="714.75" y="840" as="sourcePoint" />
            <mxPoint x="764.75" y="790" as="targetPoint" />
          </mxGeometry>
        </mxCell>
        <mxCell id="dnkfBcaZfIT-3Skl8VXm-0" value="" style="whiteSpace=wrap;html=1;aspect=fixed;fillColor=light-dark(#9999FF,var(--ge-dark-color, #121212));" parent="WIyWlLk6GJQsqaUBKTNV-1" vertex="1">
          <mxGeometry x="-177.75" y="610" width="195" height="195" as="geometry" />
        </mxCell>
        <mxCell id="dnkfBcaZfIT-3Skl8VXm-1" value="Advice -&amp;nbsp; interceptor(перехватчик)&amp;nbsp;" style="text;html=1;align=center;verticalAlign=middle;resizable=0;points=[];autosize=1;strokeColor=none;fillColor=none;" parent="WIyWlLk6GJQsqaUBKTNV-1" vertex="1">
          <mxGeometry x="-185.25" y="650" width="210" height="30" as="geometry" />
        </mxCell>
        <mxCell id="dnkfBcaZfIT-3Skl8VXm-2" value="ValidationExceptionHandler" style="rounded=0;whiteSpace=wrap;html=1;" parent="WIyWlLk6GJQsqaUBKTNV-1" vertex="1">
          <mxGeometry x="-154" y="700" width="147.5" height="40" as="geometry" />
        </mxCell>
        <mxCell id="mMFedlDfDJ9fF-s5iO91-0" value="" style="endArrow=none;html=1;rounded=0;" parent="WIyWlLk6GJQsqaUBKTNV-1" edge="1">
          <mxGeometry width="50" height="50" relative="1" as="geometry">
            <mxPoint x="164.75" y="1000" as="sourcePoint" />
            <mxPoint x="164.75" y="520" as="targetPoint" />
          </mxGeometry>
        </mxCell>
        <mxCell id="mMFedlDfDJ9fF-s5iO91-1" value="" style="endArrow=classic;html=1;rounded=0;entryX=1;entryY=0.5;entryDx=0;entryDy=0;" parent="WIyWlLk6GJQsqaUBKTNV-1" target="dnkfBcaZfIT-3Skl8VXm-0" edge="1">
          <mxGeometry width="50" height="50" relative="1" as="geometry">
            <mxPoint x="164.75" y="710" as="sourcePoint" />
            <mxPoint x="104.75" y="660" as="targetPoint" />
          </mxGeometry>
        </mxCell>
        <mxCell id="mMFedlDfDJ9fF-s5iO91-10" value="" style="endArrow=classic;html=1;rounded=0;exitX=0.935;exitY=0.045;exitDx=0;exitDy=0;exitPerimeter=0;" parent="WIyWlLk6GJQsqaUBKTNV-1" source="oeOgtYIjhjvIpxG6j6ra-133" target="oeOgtYIjhjvIpxG6j6ra-122" edge="1">
          <mxGeometry width="50" height="50" relative="1" as="geometry">
            <mxPoint x="634.75" y="890" as="sourcePoint" />
            <mxPoint x="684.75" y="840" as="targetPoint" />
          </mxGeometry>
        </mxCell>
        <mxCell id="mMFedlDfDJ9fF-s5iO91-13" value="" style="endArrow=classic;html=1;rounded=0;exitX=1;exitY=0.5;exitDx=0;exitDy=0;entryX=0.056;entryY=0.418;entryDx=0;entryDy=0;entryPerimeter=0;" parent="WIyWlLk6GJQsqaUBKTNV-1" source="oeOgtYIjhjvIpxG6j6ra-115" target="oeOgtYIjhjvIpxG6j6ra-133" edge="1">
          <mxGeometry width="50" height="50" relative="1" as="geometry">
            <mxPoint x="994.75" y="960" as="sourcePoint" />
            <mxPoint x="1044.75" y="910" as="targetPoint" />
          </mxGeometry>
        </mxCell>
        <mxCell id="FyFoM1saeB9UCsdGW9vz-1" value="Backend(server)" style="text;html=1;align=center;verticalAlign=middle;resizable=0;points=[];autosize=1;strokeColor=none;fillColor=none;" parent="WIyWlLk6GJQsqaUBKTNV-1" vertex="1">
          <mxGeometry x="-248.86" y="-331.00000000000006" width="110" height="30" as="geometry" />
        </mxCell>
        <mxCell id="FyFoM1saeB9UCsdGW9vz-5" value="Managemant&lt;div&gt;System&lt;div&gt;Controller&lt;/div&gt;&lt;div&gt;/management&lt;/div&gt;&lt;/div&gt;" style="whiteSpace=wrap;html=1;aspect=fixed;" parent="WIyWlLk6GJQsqaUBKTNV-1" vertex="1">
          <mxGeometry x="-332.12" y="-275.93000000000006" width="100.5" height="100.5" as="geometry" />
        </mxCell>
        <mxCell id="FyFoM1saeB9UCsdGW9vz-10" value="" style="sketch=0;points=[[0,0,0],[0.25,0,0],[0.5,0,0],[0.75,0,0],[1,0,0],[0,1,0],[0.25,1,0],[0.5,1,0],[0.75,1,0],[1,1,0],[0,0.25,0],[0,0.5,0],[0,0.75,0],[1,0.25,0],[1,0.5,0],[1,0.75,0]];points=[[0,0,0],[0.25,0,0],[0.5,0,0],[0.75,0,0],[1,0,0],[0,1,0],[0.25,1,0],[0.5,1,0],[0.75,1,0],[1,1,0],[0,0.25,0],[0,0.5,0],[0,0.75,0],[1,0.25,0],[1,0.5,0],[1,0.75,0]];outlineConnect=0;fontColor=#232F3E;fillColor=#E7157B;strokeColor=#ffffff;dashed=0;verticalLabelPosition=bottom;verticalAlign=top;align=center;html=1;fontSize=12;fontStyle=0;aspect=fixed;shape=mxgraph.aws4.resourceIcon;resIcon=mxgraph.aws4.backint_agent;" parent="WIyWlLk6GJQsqaUBKTNV-1" vertex="1">
          <mxGeometry x="126.25" y="430" width="78" height="78" as="geometry" />
        </mxCell>
        <mxCell id="FyFoM1saeB9UCsdGW9vz-11" value="&amp;nbsp;Выполнение перевода между счетами" style="whiteSpace=wrap;html=1;aspect=fixed;fillColor=#f8cecc;strokeColor=#b85450;" parent="WIyWlLk6GJQsqaUBKTNV-1" vertex="1">
          <mxGeometry x="1262.59" y="-280" width="80" height="80" as="geometry" />
        </mxCell>
        <mxCell id="FyFoM1saeB9UCsdGW9vz-13" value="Просмотр транзакций&amp;nbsp;" style="whiteSpace=wrap;html=1;aspect=fixed;" parent="WIyWlLk6GJQsqaUBKTNV-1" vertex="1">
          <mxGeometry x="1622.94" y="-680" width="80" height="80" as="geometry" />
        </mxCell>
        <mxCell id="FyFoM1saeB9UCsdGW9vz-18" value="&amp;nbsp;Регистрация нового пользователя" style="whiteSpace=wrap;html=1;aspect=fixed;fillColor=#d5e8d4;strokeColor=#82b366;" parent="WIyWlLk6GJQsqaUBKTNV-1" vertex="1">
          <mxGeometry x="817.37" y="-680" width="80" height="80" as="geometry" />
        </mxCell>
        <mxCell id="FyFoM1saeB9UCsdGW9vz-19" value="Вход в систему аккаунт" style="whiteSpace=wrap;html=1;aspect=fixed;fillColor=#ffe6cc;strokeColor=#d79b00;" parent="WIyWlLk6GJQsqaUBKTNV-1" vertex="1">
          <mxGeometry x="947.12" y="-680" width="80" height="80" as="geometry" />
        </mxCell>
        <mxCell id="FyFoM1saeB9UCsdGW9vz-20" value="Просмотр Баланса - после" style="whiteSpace=wrap;html=1;aspect=fixed;fillColor=#ffe6cc;strokeColor=#d79b00;" parent="WIyWlLk6GJQsqaUBKTNV-1" vertex="1">
          <mxGeometry x="1077.12" y="-680" width="80" height="80" as="geometry" />
        </mxCell>
        <mxCell id="FyFoM1saeB9UCsdGW9vz-21" value="Отправление запроса на перевод средств другому юзер" style="whiteSpace=wrap;html=1;aspect=fixed;" parent="WIyWlLk6GJQsqaUBKTNV-1" vertex="1">
          <mxGeometry x="1463.25" y="-680" width="80" height="80" as="geometry" />
        </mxCell>
        <mxCell id="FyFoM1saeB9UCsdGW9vz-23" value="Скачивание квитанций" style="whiteSpace=wrap;html=1;aspect=fixed;fillColor=#f5f5f5;fontColor=#333333;strokeColor=#666666;" parent="WIyWlLk6GJQsqaUBKTNV-1" vertex="1">
          <mxGeometry x="1769.9399999999998" y="-680" width="80" height="80" as="geometry" />
        </mxCell>
        <mxCell id="FyFoM1saeB9UCsdGW9vz-24" value="Пользоваться кредитными деньгами" style="whiteSpace=wrap;html=1;aspect=fixed;fillColor=#f5f5f5;fontColor=#333333;strokeColor=#666666;" parent="WIyWlLk6GJQsqaUBKTNV-1" vertex="1">
          <mxGeometry x="2116.19" y="-680" width="80" height="80" as="geometry" />
        </mxCell>
        <mxCell id="FyFoM1saeB9UCsdGW9vz-25" value="Открывать карточки (интернет, валютные)" style="whiteSpace=wrap;html=1;aspect=fixed;" parent="WIyWlLk6GJQsqaUBKTNV-1" vertex="1">
          <mxGeometry x="1940.94" y="-680" width="80" height="80" as="geometry" />
        </mxCell>
        <mxCell id="FyFoM1saeB9UCsdGW9vz-27" value="Блокирование Счета" style="whiteSpace=wrap;html=1;aspect=fixed;fillColor=#f8cecc;strokeColor=#b85450;" parent="WIyWlLk6GJQsqaUBKTNV-1" vertex="1">
          <mxGeometry x="1447.94" y="-280" width="80" height="80" as="geometry" />
        </mxCell>
        <mxCell id="FyFoM1saeB9UCsdGW9vz-28" value="Добавления депозита на систему банка" style="whiteSpace=wrap;html=1;aspect=fixed;fillColor=#f5f5f5;fontColor=#333333;strokeColor=#666666;" parent="WIyWlLk6GJQsqaUBKTNV-1" vertex="1">
          <mxGeometry x="2280.94" y="-680" width="80" height="80" as="geometry" />
        </mxCell>
        <mxCell id="FyFoM1saeB9UCsdGW9vz-29" value="Увеличения депозита пользователя&amp;nbsp;" style="whiteSpace=wrap;html=1;aspect=fixed;fillColor=#f5f5f5;fontColor=#333333;strokeColor=#666666;" parent="WIyWlLk6GJQsqaUBKTNV-1" vertex="1">
          <mxGeometry x="1634.56" y="-280" width="80" height="80" as="geometry" />
        </mxCell>
        <mxCell id="FyFoM1saeB9UCsdGW9vz-30" value="&amp;nbsp;Обработка входящих запросов от Backend(user)" style="whiteSpace=wrap;html=1;aspect=fixed;fillColor=#f8cecc;strokeColor=#b85450;" parent="WIyWlLk6GJQsqaUBKTNV-1" vertex="1">
          <mxGeometry x="1064.75" y="-280" width="80" height="80" as="geometry" />
        </mxCell>
        <mxCell id="FyFoM1saeB9UCsdGW9vz-31" value="Создание банковского аккаунта - проверка сущности" style="whiteSpace=wrap;html=1;aspect=fixed;fillColor=#ffe6cc;strokeColor=#d79b00;" parent="WIyWlLk6GJQsqaUBKTNV-1" vertex="1">
          <mxGeometry x="832.37" y="-280" width="80" height="80" as="geometry" />
        </mxCell>
        <mxCell id="FyFoM1saeB9UCsdGW9vz-32" value="Напоминать о задолженностях по кредитным деньгами" style="whiteSpace=wrap;html=1;aspect=fixed;fillColor=#f5f5f5;fontColor=#333333;strokeColor=#666666;" parent="WIyWlLk6GJQsqaUBKTNV-1" vertex="1">
          <mxGeometry x="1813.75" y="-280" width="80" height="80" as="geometry" />
        </mxCell>
        <mxCell id="FyFoM1saeB9UCsdGW9vz-33" value="Профиль пользователя: смена имени, email, пароля" style="whiteSpace=wrap;html=1;aspect=fixed;fillColor=#f8cecc;strokeColor=#b85450;" parent="WIyWlLk6GJQsqaUBKTNV-1" vertex="1">
          <mxGeometry x="1200.37" y="-680" width="80" height="80" as="geometry" />
        </mxCell>
        <mxCell id="FyFoM1saeB9UCsdGW9vz-34" value="Отчет по транзакциям за месяц" style="whiteSpace=wrap;html=1;aspect=fixed;fillColor=#f5f5f5;fontColor=#333333;strokeColor=#666666;" parent="WIyWlLk6GJQsqaUBKTNV-1" vertex="1">
          <mxGeometry x="1993.75" y="-280" width="80" height="80" as="geometry" />
        </mxCell>
        <mxCell id="FyFoM1saeB9UCsdGW9vz-35" value="Обмен Валют" style="whiteSpace=wrap;html=1;aspect=fixed;" parent="WIyWlLk6GJQsqaUBKTNV-1" vertex="1">
          <mxGeometry x="2180" y="-280" width="80" height="80" as="geometry" />
        </mxCell>
        <mxCell id="FyFoM1saeB9UCsdGW9vz-36" value="Добавления клиентов в друзья друг другу" style="whiteSpace=wrap;html=1;aspect=fixed;fillColor=#f5f5f5;fontColor=#333333;strokeColor=#666666;" parent="WIyWlLk6GJQsqaUBKTNV-1" vertex="1">
          <mxGeometry x="2370" y="-280" width="80" height="80" as="geometry" />
        </mxCell>
        <mxCell id="FyFoM1saeB9UCsdGW9vz-38" value="Я как пользователь, &lt;b&gt;могу &lt;/b&gt;зарегистрировать аккаунт в банке, &lt;b&gt;чтобы &lt;/b&gt;иметь там свой счет" style="whiteSpace=wrap;html=1;aspect=fixed;fillColor=#fff2cc;strokeColor=#d6b656;" parent="WIyWlLk6GJQsqaUBKTNV-1" vertex="1">
          <mxGeometry x="802.37" y="-560" width="110" height="110" as="geometry" />
        </mxCell>
        <mxCell id="FyFoM1saeB9UCsdGW9vz-39" value="Я как пользователь, &lt;b&gt;могу &lt;/b&gt;зайди в свой аккаунт в банке, &lt;b&gt;чтобы &lt;/b&gt;выполнять различные операции" style="whiteSpace=wrap;html=1;aspect=fixed;fillColor=#fff2cc;strokeColor=#d6b656;" parent="WIyWlLk6GJQsqaUBKTNV-1" vertex="1">
          <mxGeometry x="932.12" y="-560" width="110" height="110" as="geometry" />
        </mxCell>
        <mxCell id="FyFoM1saeB9UCsdGW9vz-40" value="Я как пользователь, &lt;b&gt;могу&lt;/b&gt; смотреть свой баланс, &lt;b&gt;чтобы &lt;/b&gt;следить за состоянием счёта" style="whiteSpace=wrap;html=1;aspect=fixed;fillColor=#fff2cc;strokeColor=#d6b656;" parent="WIyWlLk6GJQsqaUBKTNV-1" vertex="1">
          <mxGeometry x="1062.12" y="-560" width="110" height="110" as="geometry" />
        </mxCell>
        <mxCell id="FyFoM1saeB9UCsdGW9vz-41" value="Я как пользователь, &lt;b&gt;хочу &lt;/b&gt;менять свои данные, &lt;b&gt;чтобы &lt;/b&gt;мне было удобнее пользоваться банком" style="whiteSpace=wrap;html=1;aspect=fixed;fillColor=#fff2cc;strokeColor=#d6b656;" parent="WIyWlLk6GJQsqaUBKTNV-1" vertex="1">
          <mxGeometry x="1185.37" y="-560" width="110" height="110" as="geometry" />
        </mxCell>
        <mxCell id="FyFoM1saeB9UCsdGW9vz-42" value="Я как пользователь,&amp;nbsp;&lt;strong data-end=&quot;187&quot; data-start=&quot;177&quot;&gt; хочу&lt;/strong&gt; отправлять запрос на перевод своих средств другим пользователям,&lt;br data-end=&quot;255&quot; data-start=&quot;252&quot;&gt;&lt;b&gt;чтобы &lt;/b&gt;переводить деньги друзьям или оплачивать услуги напрямую из приложения" style="whiteSpace=wrap;html=1;aspect=fixed;fillColor=#f5f5f5;strokeColor=#666666;fontColor=#333333;" parent="WIyWlLk6GJQsqaUBKTNV-1" vertex="1">
          <mxGeometry x="1430" y="-560" width="140" height="140" as="geometry" />
        </mxCell>
        <mxCell id="FyFoM1saeB9UCsdGW9vz-43" value="Я как пользователь, &lt;b&gt;могу&lt;/b&gt; смотреть свои транзакции, &lt;b&gt;чтобы &lt;/b&gt;контроливать свои затраты" style="whiteSpace=wrap;html=1;aspect=fixed;fillColor=#f5f5f5;fontColor=#333333;strokeColor=#666666;" parent="WIyWlLk6GJQsqaUBKTNV-1" vertex="1">
          <mxGeometry x="1602" y="-560.32" width="110" height="110" as="geometry" />
        </mxCell>
        <mxCell id="FyFoM1saeB9UCsdGW9vz-44" value="Я как пользователь, &lt;b&gt;могу&lt;/b&gt; скачивать квитанции, &lt;b&gt;чтобы &lt;/b&gt;переслать кому то ее" style="whiteSpace=wrap;html=1;aspect=fixed;fillColor=#f5f5f5;fontColor=#333333;strokeColor=#666666;" parent="WIyWlLk6GJQsqaUBKTNV-1" vertex="1">
          <mxGeometry x="1754.94" y="-560" width="110" height="110" as="geometry" />
        </mxCell>
        <mxCell id="FyFoM1saeB9UCsdGW9vz-45" value="Я как пользователь, &lt;b&gt;хочу&amp;nbsp;&lt;/b&gt;открывать новые банковские карточки,&amp;nbsp;&lt;b&gt;ч&lt;/b&gt;&lt;strong data-end=&quot;311&quot; data-start=&quot;302&quot;&gt;тобы&lt;/strong&gt; удобно управлять финансами, проводить онлайн-платежи или использовать разные валюты." style="whiteSpace=wrap;html=1;aspect=fixed;fillColor=#f5f5f5;fontColor=#333333;strokeColor=#666666;" parent="WIyWlLk6GJQsqaUBKTNV-1" vertex="1">
          <mxGeometry x="1905.94" y="-561" width="150" height="150" as="geometry" />
        </mxCell>
        <mxCell id="FyFoM1saeB9UCsdGW9vz-47" value="Я как пользователь,&amp;nbsp;&lt;strong data-end=&quot;193&quot; data-start=&quot;183&quot;&gt;хочу&lt;/strong&gt; иметь возможность использовать кредитные деньги,&amp;nbsp;&lt;strong data-end=&quot;254&quot; data-start=&quot;245&quot;&gt;чтобы&lt;/strong&gt; оплачивать товары и услуги, даже если на моём основном счёте недостаточно средств." style="whiteSpace=wrap;html=1;aspect=fixed;fillColor=#f5f5f5;fontColor=#333333;strokeColor=#666666;" parent="WIyWlLk6GJQsqaUBKTNV-1" vertex="1">
          <mxGeometry x="2081.19" y="-560" width="150" height="150" as="geometry" />
        </mxCell>
        <mxCell id="FyFoM1saeB9UCsdGW9vz-48" value="Я как пользователь,&amp;nbsp;&lt;strong data-end=&quot;156&quot; data-start=&quot;146&quot;&gt;хочу&lt;/strong&gt; открыть депозит (вклад) в системе банка,&lt;br data-end=&quot;200&quot; data-start=&quot;197&quot;&gt;&lt;strong data-end=&quot;209&quot; data-start=&quot;200&quot;&gt;чтобы&lt;/strong&gt; получать пассивный доход и сохранять свои деньги с процентами на определённый срок." style="whiteSpace=wrap;html=1;aspect=fixed;fillColor=#f5f5f5;fontColor=#333333;strokeColor=#666666;" parent="WIyWlLk6GJQsqaUBKTNV-1" vertex="1">
          <mxGeometry x="2250.94" y="-560" width="150" height="150" as="geometry" />
        </mxCell>
        <mxCell id="FyFoM1saeB9UCsdGW9vz-50" value="Как банк, я &lt;b&gt;хочу&amp;nbsp; &lt;/b&gt;иметь возможность создавать банковские аккаунты для пользователей,&lt;br&gt;&lt;strong data-end=&quot;266&quot; data-start=&quot;257&quot;&gt;чтобы&lt;/strong&gt; они могли пользоваться услугами банка: хранить деньги, открывать карты, делать переводы и получать проценты&amp;nbsp;" style="whiteSpace=wrap;html=1;aspect=fixed;fillColor=#fff2cc;strokeColor=#d6b656;" parent="WIyWlLk6GJQsqaUBKTNV-1" vertex="1">
          <mxGeometry x="799.75" y="-160.36999999999995" width="150" height="150" as="geometry" />
        </mxCell>
        <mxCell id="FyFoM1saeB9UCsdGW9vz-51" value="Как банк, я &lt;b&gt;могу&amp;nbsp;&lt;/b&gt;иметь возможность обрабатывать все входящие запросы от микросервиса пользователей (Backend-user),&lt;b&gt;ч&lt;/b&gt;&lt;strong data-end=&quot;357&quot; data-start=&quot;348&quot;&gt;тобы&lt;/strong&gt; взаимодействовать с базой данных, изменять, создавать и возвращать нужные данные, обеспечивая бизнес-логику банка.&amp;nbsp;&amp;nbsp;" style="whiteSpace=wrap;html=1;aspect=fixed;fillColor=#fff2cc;strokeColor=#d6b656;" parent="WIyWlLk6GJQsqaUBKTNV-1" vertex="1">
          <mxGeometry x="1020" y="-160.37" width="170" height="170" as="geometry" />
        </mxCell>
        <mxCell id="FyFoM1saeB9UCsdGW9vz-52" value="Как банк, я &lt;b&gt;могу&amp;nbsp;&lt;/b&gt;иметь возможность самостоятельного перевода средств между счетами,&lt;b&gt;ч&lt;/b&gt;&lt;strong data-end=&quot;357&quot; data-start=&quot;348&quot;&gt;тобы &lt;/strong&gt;&lt;span data-end=&quot;357&quot; data-start=&quot;348&quot;&gt;обезпечивать срочное пополнение счетов без внешних операций&lt;/span&gt;.&amp;nbsp;&amp;nbsp;" style="whiteSpace=wrap;html=1;aspect=fixed;fillColor=#fff2cc;strokeColor=#d6b656;" parent="WIyWlLk6GJQsqaUBKTNV-1" vertex="1">
          <mxGeometry x="1230" y="-160.37" width="145.18" height="145.18" as="geometry" />
        </mxCell>
        <mxCell id="FyFoM1saeB9UCsdGW9vz-54" value="Как банк, я &lt;b&gt;могу&amp;nbsp;&lt;/b&gt;иметь возможность блокирование аккаунта или счета пользователя, &lt;b&gt;чтобы&lt;span data-end=&quot;357&quot; data-start=&quot;348&quot;&gt;&amp;nbsp;&lt;/span&gt;&lt;/b&gt;&lt;span data-end=&quot;357&quot; data-start=&quot;348&quot;&gt;обеспечивать безопасность банка или в несоответствиями с правилами системы&lt;/span&gt;.&amp;nbsp;&amp;nbsp;" style="whiteSpace=wrap;html=1;aspect=fixed;fillColor=#fff2cc;strokeColor=#d6b656;" parent="WIyWlLk6GJQsqaUBKTNV-1" vertex="1">
          <mxGeometry x="1412.94" y="-160.37" width="150" height="150" as="geometry" />
        </mxCell>
        <mxCell id="FyFoM1saeB9UCsdGW9vz-55" value="Как банк, я &lt;b&gt;могу&amp;nbsp;&lt;/b&gt;иметь возможность увеличения депозитного счета пользователя в процентах, &lt;b&gt;чтобы&lt;/b&gt;&lt;span style=&quot;&quot; data-end=&quot;357&quot; data-start=&quot;348&quot;&gt;&lt;b&gt;&amp;nbsp;&lt;/b&gt;стимулировать клиентов хранить средства на депозитах&amp;nbsp;&lt;/span&gt;&amp;nbsp;&amp;nbsp;" style="whiteSpace=wrap;html=1;aspect=fixed;fillColor=#f5f5f5;fontColor=#333333;strokeColor=#666666;" parent="WIyWlLk6GJQsqaUBKTNV-1" vertex="1">
          <mxGeometry x="1602" y="-160" width="145.12" height="145.12" as="geometry" />
        </mxCell>
        <mxCell id="FyFoM1saeB9UCsdGW9vz-56" value="Как банк, я &lt;b&gt;могу &lt;/b&gt;отправлять SMS-уведомление на аккаунт о задолженностях пользователя&amp;nbsp;&lt;b&gt;чтобы &lt;/b&gt;предупредить клиента о возможном штрафе&amp;nbsp;&amp;nbsp;" style="whiteSpace=wrap;html=1;aspect=fixed;fillColor=#f5f5f5;fontColor=#333333;strokeColor=#666666;" parent="WIyWlLk6GJQsqaUBKTNV-1" vertex="1">
          <mxGeometry x="1781.19" y="-160.37" width="145.12" height="145.12" as="geometry" />
        </mxCell>
        <mxCell id="FyFoM1saeB9UCsdGW9vz-57" value="Как банк, я &lt;b&gt;могу &lt;/b&gt;отправлять каждый месяц отчет по транзакциям на Gmail&amp;nbsp; пользователя&amp;nbsp;&lt;b&gt;чтобы &lt;/b&gt;он мог отследить свои месячные затраты&amp;nbsp; &amp;nbsp;" style="whiteSpace=wrap;html=1;aspect=fixed;fillColor=#f5f5f5;fontColor=#333333;strokeColor=#666666;" parent="WIyWlLk6GJQsqaUBKTNV-1" vertex="1">
          <mxGeometry x="1961.19" y="-160" width="145.12" height="145.12" as="geometry" />
        </mxCell>
        <mxCell id="FyFoM1saeB9UCsdGW9vz-58" value="Как банк, я &lt;b&gt;могу &lt;/b&gt;конвертировать валюту на счетах клиентов (автоматически или по запросу), &lt;b&gt;чтобы&lt;/b&gt;: предоставлять клиентам гибкость в управлении мультивалютными счетами&amp;nbsp; &amp;nbsp;" style="whiteSpace=wrap;html=1;aspect=fixed;fillColor=#f5f5f5;fontColor=#333333;strokeColor=#666666;" parent="WIyWlLk6GJQsqaUBKTNV-1" vertex="1">
          <mxGeometry x="2147.44" y="-160" width="145.12" height="145.12" as="geometry" />
        </mxCell>
        <mxCell id="FyFoM1saeB9UCsdGW9vz-60" value="Как банк, я &lt;b&gt;могу &lt;/b&gt;предоставить клиентам систему управления &quot;друзьями&quot; (контактами для переводов), &lt;b&gt;чтобы&lt;/b&gt;: Упростить частые переводы между знакомыми - Повысить вовлеченность клиентов за счет социальных фич" style="whiteSpace=wrap;html=1;aspect=fixed;fillColor=#f5f5f5;fontColor=#333333;strokeColor=#666666;" parent="WIyWlLk6GJQsqaUBKTNV-1" vertex="1">
          <mxGeometry x="2330" y="-160" width="145.12" height="145.12" as="geometry" />
        </mxCell>
        <mxCell id="FyFoM1saeB9UCsdGW9vz-196" value="Auth&lt;div&gt;Controller&lt;/div&gt;&lt;div&gt;/auth&lt;/div&gt;" style="whiteSpace=wrap;html=1;aspect=fixed;" parent="WIyWlLk6GJQsqaUBKTNV-1" vertex="1">
          <mxGeometry x="-304.37" y="-631" width="64.5" height="64.5" as="geometry" />
        </mxCell>
        <mxCell id="FyFoM1saeB9UCsdGW9vz-197" value="UserProfile&lt;div&gt;Controller&lt;/div&gt;&lt;div&gt;/profile&lt;/div&gt;" style="whiteSpace=wrap;html=1;aspect=fixed;" parent="WIyWlLk6GJQsqaUBKTNV-1" vertex="1">
          <mxGeometry x="-227.56000000000006" y="-633" width="68.5" height="68.5" as="geometry" />
        </mxCell>
        <mxCell id="FyFoM1saeB9UCsdGW9vz-198" value="Friends&lt;div&gt;Controller&lt;/div&gt;&lt;div&gt;/friends&lt;/div&gt;" style="whiteSpace=wrap;html=1;aspect=fixed;" parent="WIyWlLk6GJQsqaUBKTNV-1" vertex="1">
          <mxGeometry x="-212.62" y="-535.44" width="64.5" height="64.5" as="geometry" />
        </mxCell>
        <mxCell id="FyFoM1saeB9UCsdGW9vz-200" value="Payment&lt;div&gt;Controller&lt;/div&gt;&lt;div&gt;/payments&lt;/div&gt;" style="whiteSpace=wrap;html=1;aspect=fixed;" parent="WIyWlLk6GJQsqaUBKTNV-1" vertex="1">
          <mxGeometry x="-148.12" y="-631" width="64.5" height="64.5" as="geometry" />
        </mxCell>
        <mxCell id="FyFoM1saeB9UCsdGW9vz-201" value="Notification&lt;div&gt;Service&lt;/div&gt;" style="whiteSpace=wrap;html=1;aspect=fixed;" parent="WIyWlLk6GJQsqaUBKTNV-1" vertex="1">
          <mxGeometry x="-133.67999999999995" y="-535.44" width="64.5" height="64.5" as="geometry" />
        </mxCell>
        <mxCell id="FyFoM1saeB9UCsdGW9vz-202" value="Account&lt;div&gt;Controller&amp;nbsp;&lt;/div&gt;&lt;div&gt;&lt;span style=&quot;background-color: transparent; color: light-dark(rgb(0, 0, 0), rgb(255, 255, 255));&quot;&gt;/accounts&amp;nbsp;&lt;/span&gt;&lt;span style=&quot;background-color: transparent; text-wrap-mode: nowrap; color: rgba(0, 0, 0, 0); font-family: monospace; font-size: 0px; text-align: start;&quot;&gt;%3CmxGraphModel%3E%3Croot%3E%3CmxCell%20id%3D%220%22%2F%3E%3CmxCell%20id%3D%221%22%20parent%3D%220%22%2F%3E%3CmxCell%20id%3D%222%22%20value%3D%22Account%26lt%3Bdiv%26gt%3BController%26lt%3B%2Fdiv%26gt%3B%22%20style%3D%22whiteSpace%3Dwrap%3Bhtml%3D1%3Baspect%3Dfixed%3B%22%20vertex%3D%221%22%20parent%3D%221%22%3E%3CmxGeometry%20x%3D%22-462.81%22%20y%3D%22-343%22%20width%3D%2264.5%22%20height%3D%2264.5%22%20as%3D%22geometry%22%2F%3E%3C%2FmxCell%3E%3C%2Froot%3E%3C%2FmxGraphModel%3E&lt;/span&gt;&lt;/div&gt;" style="whiteSpace=wrap;html=1;aspect=fixed;" parent="WIyWlLk6GJQsqaUBKTNV-1" vertex="1">
          <mxGeometry x="-310.56000000000006" y="-535.44" width="83" height="83" as="geometry" />
        </mxCell>
        <mxCell id="FyFoM1saeB9UCsdGW9vz-206" value="PORT:5000" style="rounded=0;whiteSpace=wrap;html=1;fillColor=light-dark(#3399FF,var(--ge-dark-color, #121212));shadow=0;" parent="WIyWlLk6GJQsqaUBKTNV-1" vertex="1">
          <mxGeometry x="-252.66999999999996" y="-301.00000000000006" width="119" height="20" as="geometry" />
        </mxCell>
        <mxCell id="FyFoM1saeB9UCsdGW9vz-207" value="Transaction&lt;div&gt;Service&lt;div&gt;/transactions&lt;/div&gt;&lt;/div&gt;" style="whiteSpace=wrap;html=1;aspect=fixed;" parent="WIyWlLk6GJQsqaUBKTNV-1" vertex="1">
          <mxGeometry x="-221.12" y="-275.93000000000006" width="100.5" height="100.5" as="geometry" />
        </mxCell>
        <mxCell id="FyFoM1saeB9UCsdGW9vz-209" value="Deposit&lt;div&gt;Service&lt;div&gt;/deposit&lt;/div&gt;&lt;/div&gt;" style="whiteSpace=wrap;html=1;aspect=fixed;" parent="WIyWlLk6GJQsqaUBKTNV-1" vertex="1">
          <mxGeometry x="-332.12" y="-154.24" width="100.5" height="100.5" as="geometry" />
        </mxCell>
        <mxCell id="FyFoM1saeB9UCsdGW9vz-210" value="CurrencyExchange&lt;div&gt;Service&lt;/div&gt;&lt;div&gt;/exchenge&lt;/div&gt;" style="whiteSpace=wrap;html=1;aspect=fixed;" parent="WIyWlLk6GJQsqaUBKTNV-1" vertex="1">
          <mxGeometry x="-221.12" y="-154.24" width="100.5" height="100.5" as="geometry" />
        </mxCell>
        <mxCell id="FyFoM1saeB9UCsdGW9vz-211" value="Log&lt;div&gt;Service&lt;div&gt;/log&lt;/div&gt;&lt;/div&gt;" style="whiteSpace=wrap;html=1;aspect=fixed;" parent="WIyWlLk6GJQsqaUBKTNV-1" vertex="1">
          <mxGeometry x="-116.19" y="-186.81" width="50" height="50" as="geometry" />
        </mxCell>
        <mxCell id="FyFoM1saeB9UCsdGW9vz-214" value="" style="endArrow=classic;html=1;rounded=0;exitX=1;exitY=0.5;exitDx=0;exitDy=0;entryX=0.005;entryY=0.475;entryDx=0;entryDy=0;entryPerimeter=0;" parent="WIyWlLk6GJQsqaUBKTNV-1" source="oeOgtYIjhjvIpxG6j6ra-10" target="oeOgtYIjhjvIpxG6j6ra-3" edge="1">
          <mxGeometry width="50" height="50" relative="1" as="geometry">
            <mxPoint x="-378.12" y="-566.81" as="sourcePoint" />
            <mxPoint x="-328.12" y="-616.81" as="targetPoint" />
          </mxGeometry>
        </mxCell>
        <mxCell id="FyFoM1saeB9UCsdGW9vz-215" value="" style="endArrow=classic;html=1;rounded=0;exitX=0.283;exitY=0.998;exitDx=0;exitDy=0;exitPerimeter=0;entryX=0.282;entryY=0.002;entryDx=0;entryDy=0;entryPerimeter=0;" parent="WIyWlLk6GJQsqaUBKTNV-1" source="oeOgtYIjhjvIpxG6j6ra-3" target="FyFoM1saeB9UCsdGW9vz-205" edge="1">
          <mxGeometry width="50" height="50" relative="1" as="geometry">
            <mxPoint x="-258.12" y="-346.81" as="sourcePoint" />
            <mxPoint x="-208.12" y="-396.81" as="targetPoint" />
          </mxGeometry>
        </mxCell>
        <mxCell id="FyFoM1saeB9UCsdGW9vz-216" value="" style="endArrow=classic;html=1;rounded=0;exitX=0.719;exitY=0.002;exitDx=0;exitDy=0;exitPerimeter=0;entryX=0.708;entryY=0.994;entryDx=0;entryDy=0;entryPerimeter=0;" parent="WIyWlLk6GJQsqaUBKTNV-1" source="FyFoM1saeB9UCsdGW9vz-205" target="oeOgtYIjhjvIpxG6j6ra-3" edge="1">
          <mxGeometry width="50" height="50" relative="1" as="geometry">
            <mxPoint x="-218.12" y="-346.81" as="sourcePoint" />
            <mxPoint x="-168.12" y="-396.81" as="targetPoint" />
          </mxGeometry>
        </mxCell>
        <mxCell id="FyFoM1saeB9UCsdGW9vz-218" value="" style="endArrow=classic;html=1;rounded=0;exitX=1;exitY=0.5;exitDx=0;exitDy=0;entryX=0.002;entryY=0.534;entryDx=0;entryDy=0;entryPerimeter=0;" parent="WIyWlLk6GJQsqaUBKTNV-1" source="FyFoM1saeB9UCsdGW9vz-205" target="oeOgtYIjhjvIpxG6j6ra-15" edge="1">
          <mxGeometry width="50" height="50" relative="1" as="geometry">
            <mxPoint x="-18.120000000000005" y="-156.81" as="sourcePoint" />
            <mxPoint x="31.879999999999995" y="-206.81" as="targetPoint" />
          </mxGeometry>
        </mxCell>
        <mxCell id="RlkNxo-kqqhiC6b_-_8K-9" value="&lt;span style=&quot;font-weight: 400;&quot;&gt;&amp;nbsp;Регистрация нового пользователя&lt;/span&gt;" style="swimlane;html=1;childLayout=stackLayout;resizeParent=1;resizeParentMax=0;horizontal=0;startSize=20;horizontalStack=0;whiteSpace=wrap;" parent="WIyWlLk6GJQsqaUBKTNV-1" vertex="1">
          <mxGeometry x="2590" y="-510" width="750" height="400" as="geometry" />
        </mxCell>
        <mxCell id="RlkNxo-kqqhiC6b_-_8K-10" value="&lt;span style=&quot;text-wrap-mode: wrap;&quot;&gt;User&lt;/span&gt;" style="swimlane;html=1;startSize=20;horizontal=0;" parent="RlkNxo-kqqhiC6b_-_8K-9" vertex="1">
          <mxGeometry x="20" width="730" height="120" as="geometry">
            <mxRectangle x="20" width="490" height="30" as="alternateBounds" />
          </mxGeometry>
        </mxCell>
        <mxCell id="RlkNxo-kqqhiC6b_-_8K-14" value="" style="points=[[0.145,0.145,0],[0.5,0,0],[0.855,0.145,0],[1,0.5,0],[0.855,0.855,0],[0.5,1,0],[0.145,0.855,0],[0,0.5,0]];shape=mxgraph.bpmn.event;html=1;verticalLabelPosition=bottom;labelBackgroundColor=#ffffff;verticalAlign=top;align=center;perimeter=ellipsePerimeter;outlineConnect=0;aspect=fixed;outline=standard;symbol=general;" parent="RlkNxo-kqqhiC6b_-_8K-10" vertex="1">
          <mxGeometry x="40" y="42.5" width="35" height="35" as="geometry" />
        </mxCell>
        <mxCell id="RlkNxo-kqqhiC6b_-_8K-15" value="" style="edgeStyle=elbowEdgeStyle;fontSize=12;html=1;endArrow=blockThin;endFill=1;rounded=0;exitX=1;exitY=0.5;exitDx=0;exitDy=0;exitPerimeter=0;" parent="RlkNxo-kqqhiC6b_-_8K-10" source="RlkNxo-kqqhiC6b_-_8K-14" edge="1">
          <mxGeometry width="160" relative="1" as="geometry">
            <mxPoint x="80" y="60" as="sourcePoint" />
            <mxPoint x="120" y="60" as="targetPoint" />
          </mxGeometry>
        </mxCell>
        <mxCell id="RlkNxo-kqqhiC6b_-_8K-33" value="" style="edgeStyle=elbowEdgeStyle;fontSize=12;html=1;endArrow=blockThin;endFill=1;rounded=0;exitX=1;exitY=0.5;exitDx=0;exitDy=0;exitPerimeter=0;" parent="RlkNxo-kqqhiC6b_-_8K-10" target="RlkNxo-kqqhiC6b_-_8K-34" edge="1">
          <mxGeometry width="160" relative="1" as="geometry">
            <mxPoint x="340" y="59.79000000000002" as="sourcePoint" />
            <mxPoint x="385" y="59.79000000000002" as="targetPoint" />
          </mxGeometry>
        </mxCell>
        <mxCell id="RlkNxo-kqqhiC6b_-_8K-34" value="" style="points=[[0.145,0.145,0],[0.5,0,0],[0.855,0.145,0],[1,0.5,0],[0.855,0.855,0],[0.5,1,0],[0.145,0.855,0],[0,0.5,0]];shape=mxgraph.bpmn.event;html=1;verticalLabelPosition=bottom;labelBackgroundColor=#ffffff;verticalAlign=top;align=center;perimeter=ellipsePerimeter;outlineConnect=0;aspect=fixed;outline=end;symbol=terminate2;" parent="RlkNxo-kqqhiC6b_-_8K-10" vertex="1">
          <mxGeometry x="370" y="42.5" width="35" height="35" as="geometry" />
        </mxCell>
        <mxCell id="RlkNxo-kqqhiC6b_-_8K-47" value="&amp;nbsp; Отправить регистрационные данные" style="points=[[0.25,0,0],[0.5,0,0],[0.75,0,0],[1,0.25,0],[1,0.5,0],[1,0.75,0],[0.75,1,0],[0.5,1,0],[0.25,1,0],[0,0.75,0],[0,0.5,0],[0,0.25,0]];shape=mxgraph.bpmn.task2;whiteSpace=wrap;rectStyle=rounded;size=10;html=1;container=1;expand=0;collapsible=0;taskMarker=receive;" parent="RlkNxo-kqqhiC6b_-_8K-10" vertex="1">
          <mxGeometry x="120" y="35" width="100" height="50" as="geometry" />
        </mxCell>
        <mxCell id="RlkNxo-kqqhiC6b_-_8K-49" value="Вывод ошибки" style="points=[[0.25,0,0],[0.5,0,0],[0.75,0,0],[1,0.25,0],[1,0.5,0],[1,0.75,0],[0.75,1,0],[0.5,1,0],[0.25,1,0],[0,0.75,0],[0,0.5,0],[0,0.25,0]];shape=mxgraph.bpmn.task2;whiteSpace=wrap;rectStyle=rounded;size=10;html=1;container=1;expand=0;collapsible=0;taskMarker=receive;" parent="RlkNxo-kqqhiC6b_-_8K-10" vertex="1">
          <mxGeometry x="240" y="35" width="100" height="50" as="geometry" />
        </mxCell>
        <mxCell id="RlkNxo-kqqhiC6b_-_8K-50" value="&amp;nbsp; &amp;nbsp; &amp;nbsp; Вывод успеха о регистрации акк&amp;nbsp;" style="points=[[0.25,0,0],[0.5,0,0],[0.75,0,0],[1,0.25,0],[1,0.5,0],[1,0.75,0],[0.75,1,0],[0.5,1,0],[0.25,1,0],[0,0.75,0],[0,0.5,0],[0,0.25,0]];shape=mxgraph.bpmn.task2;whiteSpace=wrap;rectStyle=rounded;size=10;html=1;container=1;expand=0;collapsible=0;taskMarker=receive;" parent="RlkNxo-kqqhiC6b_-_8K-10" vertex="1">
          <mxGeometry x="460" y="35" width="100" height="50" as="geometry" />
        </mxCell>
        <mxCell id="RlkNxo-kqqhiC6b_-_8K-70" value="" style="endArrow=classic;html=1;rounded=0;exitX=1;exitY=0.5;exitDx=0;exitDy=0;exitPerimeter=0;" parent="RlkNxo-kqqhiC6b_-_8K-10" source="RlkNxo-kqqhiC6b_-_8K-50" edge="1">
          <mxGeometry width="50" height="50" relative="1" as="geometry">
            <mxPoint x="580" y="80" as="sourcePoint" />
            <mxPoint x="590" y="60" as="targetPoint" />
          </mxGeometry>
        </mxCell>
        <mxCell id="RlkNxo-kqqhiC6b_-_8K-72" value="" style="points=[[0.145,0.145,0],[0.5,0,0],[0.855,0.145,0],[1,0.5,0],[0.855,0.855,0],[0.5,1,0],[0.145,0.855,0],[0,0.5,0]];shape=mxgraph.bpmn.event;html=1;verticalLabelPosition=bottom;labelBackgroundColor=#ffffff;verticalAlign=top;align=center;perimeter=ellipsePerimeter;outlineConnect=0;aspect=fixed;outline=end;symbol=terminate2;" parent="RlkNxo-kqqhiC6b_-_8K-10" vertex="1">
          <mxGeometry x="590" y="42.5" width="35" height="35" as="geometry" />
        </mxCell>
        <mxCell id="RlkNxo-kqqhiC6b_-_8K-26" value="" style="endArrow=classic;html=1;rounded=0;exitX=0.5;exitY=0;exitDx=0;exitDy=0;exitPerimeter=0;entryX=0.463;entryY=1.007;entryDx=0;entryDy=0;entryPerimeter=0;" parent="RlkNxo-kqqhiC6b_-_8K-9" edge="1">
          <mxGeometry width="50" height="50" relative="1" as="geometry">
            <mxPoint x="305" y="169" as="sourcePoint" />
            <mxPoint x="306.3000000000002" y="85.34999999999991" as="targetPoint" />
          </mxGeometry>
        </mxCell>
        <mxCell id="RlkNxo-kqqhiC6b_-_8K-97" value="" style="html=1;labelBackgroundColor=#ffffff;startArrow=none;startFill=0;startSize=6;endArrow=classic;endFill=1;endSize=6;jettySize=auto;orthogonalLoop=1;strokeWidth=1;dashed=1;fontSize=14;rounded=0;exitX=0.5;exitY=0;exitDx=0;exitDy=0;exitPerimeter=0;entryX=0.5;entryY=1;entryDx=0;entryDy=0;entryPerimeter=0;" parent="RlkNxo-kqqhiC6b_-_8K-9" source="RlkNxo-kqqhiC6b_-_8K-43" target="RlkNxo-kqqhiC6b_-_8K-50" edge="1">
          <mxGeometry width="60" height="60" relative="1" as="geometry">
            <mxPoint x="450" y="140" as="sourcePoint" />
            <mxPoint x="510" y="80" as="targetPoint" />
          </mxGeometry>
        </mxCell>
        <mxCell id="RlkNxo-kqqhiC6b_-_8K-11" value="&lt;span style=&quot;text-wrap-mode: wrap;&quot;&gt;Bank&lt;/span&gt;" style="swimlane;html=1;startSize=20;horizontal=0;" parent="RlkNxo-kqqhiC6b_-_8K-9" vertex="1">
          <mxGeometry x="20" y="120" width="730" height="280" as="geometry">
            <mxRectangle x="20" y="30" width="490" height="30" as="alternateBounds" />
          </mxGeometry>
        </mxCell>
        <mxCell id="RlkNxo-kqqhiC6b_-_8K-25" value="" style="endArrow=classic;html=1;rounded=0;exitX=1;exitY=0.5;exitDx=0;exitDy=0;exitPerimeter=0;" parent="RlkNxo-kqqhiC6b_-_8K-11" edge="1">
          <mxGeometry width="50" height="50" relative="1" as="geometry">
            <mxPoint x="225" y="74" as="sourcePoint" />
            <mxPoint x="260" y="74" as="targetPoint" />
          </mxGeometry>
        </mxCell>
        <mxCell id="RlkNxo-kqqhiC6b_-_8K-28" value="" style="endArrow=classic;html=1;rounded=0;exitX=1;exitY=0.5;exitDx=0;exitDy=0;exitPerimeter=0;" parent="RlkNxo-kqqhiC6b_-_8K-11" edge="1">
          <mxGeometry width="50" height="50" relative="1" as="geometry">
            <mxPoint x="310" y="74" as="sourcePoint" />
            <mxPoint x="350" y="74" as="targetPoint" />
          </mxGeometry>
        </mxCell>
        <mxCell id="RlkNxo-kqqhiC6b_-_8K-29" value="&lt;span style=&quot;font-size: 6px;&quot;&gt;нет&lt;/span&gt;" style="text;html=1;align=center;verticalAlign=middle;resizable=0;points=[];autosize=1;strokeColor=none;fillColor=none;rotation=270;" parent="RlkNxo-kqqhiC6b_-_8K-11" vertex="1">
          <mxGeometry x="260" y="13.5" width="30" height="30" as="geometry" />
        </mxCell>
        <mxCell id="RlkNxo-kqqhiC6b_-_8K-30" value="&lt;font style=&quot;font-size: 6px;&quot;&gt;да&lt;/font&gt;" style="text;html=1;align=center;verticalAlign=middle;resizable=0;points=[];autosize=1;strokeColor=none;fillColor=none;rotation=0;" parent="RlkNxo-kqqhiC6b_-_8K-11" vertex="1">
          <mxGeometry x="310" y="49" width="30" height="30" as="geometry" />
        </mxCell>
        <mxCell id="RlkNxo-kqqhiC6b_-_8K-31" value="" style="points=[[0.25,0.25,0],[0.5,0,0],[0.75,0.25,0],[1,0.5,0],[0.75,0.75,0],[0.5,1,0],[0.25,0.75,0],[0,0.5,0]];shape=mxgraph.bpmn.gateway2;html=1;verticalLabelPosition=bottom;labelBackgroundColor=#ffffff;verticalAlign=top;align=center;perimeter=rhombusPerimeter;outlineConnect=0;outline=none;symbol=none;gwType=exclusive;" parent="RlkNxo-kqqhiC6b_-_8K-11" vertex="1">
          <mxGeometry x="260" y="49" width="50" height="50" as="geometry" />
        </mxCell>
        <mxCell id="RlkNxo-kqqhiC6b_-_8K-32" value="Валидные ли данные?" style="text;html=1;align=center;verticalAlign=middle;resizable=0;points=[];autosize=1;strokeColor=none;fillColor=none;fontSize=6;" parent="RlkNxo-kqqhiC6b_-_8K-11" vertex="1">
          <mxGeometry x="240" y="93" width="90" height="20" as="geometry" />
        </mxCell>
        <mxCell id="RlkNxo-kqqhiC6b_-_8K-35" value="" style="points=[[0.25,0.25,0],[0.5,0,0],[0.75,0.25,0],[1,0.5,0],[0.75,0.75,0],[0.5,1,0],[0.25,0.75,0],[0,0.5,0]];shape=mxgraph.bpmn.gateway2;html=1;verticalLabelPosition=bottom;labelBackgroundColor=#ffffff;verticalAlign=top;align=center;perimeter=rhombusPerimeter;outlineConnect=0;outline=none;symbol=none;gwType=parallel;" parent="RlkNxo-kqqhiC6b_-_8K-11" vertex="1">
          <mxGeometry x="350" y="49" width="50" height="50" as="geometry" />
        </mxCell>
        <mxCell id="RlkNxo-kqqhiC6b_-_8K-38" value="" style="endArrow=none;html=1;rounded=0;exitX=0.5;exitY=0;exitDx=0;exitDy=0;exitPerimeter=0;" parent="RlkNxo-kqqhiC6b_-_8K-11" source="RlkNxo-kqqhiC6b_-_8K-35" edge="1">
          <mxGeometry width="50" height="50" relative="1" as="geometry">
            <mxPoint x="400" y="63.5" as="sourcePoint" />
            <mxPoint x="375" y="30" as="targetPoint" />
          </mxGeometry>
        </mxCell>
        <mxCell id="RlkNxo-kqqhiC6b_-_8K-39" value="" style="endArrow=none;html=1;rounded=0;exitX=0.5;exitY=0;exitDx=0;exitDy=0;exitPerimeter=0;" parent="RlkNxo-kqqhiC6b_-_8K-11" target="RlkNxo-kqqhiC6b_-_8K-35" edge="1">
          <mxGeometry width="50" height="50" relative="1" as="geometry">
            <mxPoint x="375" y="118" as="sourcePoint" />
            <mxPoint x="374.8800000000001" y="99" as="targetPoint" />
          </mxGeometry>
        </mxCell>
        <mxCell id="RlkNxo-kqqhiC6b_-_8K-40" value="" style="endArrow=classic;html=1;rounded=0;" parent="RlkNxo-kqqhiC6b_-_8K-11" edge="1">
          <mxGeometry width="50" height="50" relative="1" as="geometry">
            <mxPoint x="374" y="118" as="sourcePoint" />
            <mxPoint x="450" y="118" as="targetPoint" />
          </mxGeometry>
        </mxCell>
        <mxCell id="RlkNxo-kqqhiC6b_-_8K-41" value="" style="endArrow=classic;html=1;rounded=0;" parent="RlkNxo-kqqhiC6b_-_8K-11" edge="1">
          <mxGeometry width="50" height="50" relative="1" as="geometry">
            <mxPoint x="375" y="30" as="sourcePoint" />
            <mxPoint x="451" y="30" as="targetPoint" />
          </mxGeometry>
        </mxCell>
        <mxCell id="RlkNxo-kqqhiC6b_-_8K-42" value="" style="endArrow=classic;html=1;rounded=0;exitX=1;exitY=0.5;exitDx=0;exitDy=0;exitPerimeter=0;" parent="RlkNxo-kqqhiC6b_-_8K-11" source="RlkNxo-kqqhiC6b_-_8K-35" edge="1">
          <mxGeometry width="50" height="50" relative="1" as="geometry">
            <mxPoint x="410" y="90" as="sourcePoint" />
            <mxPoint x="450" y="74" as="targetPoint" />
          </mxGeometry>
        </mxCell>
        <mxCell id="RlkNxo-kqqhiC6b_-_8K-43" value="&amp;nbsp;Ответ о регистрации" style="points=[[0.25,0,0],[0.5,0,0],[0.75,0,0],[1,0.25,0],[1,0.5,0],[1,0.75,0],[0.75,1,0],[0.5,1,0],[0.25,1,0],[0,0.75,0],[0,0.5,0],[0,0.25,0]];shape=mxgraph.bpmn.task2;whiteSpace=wrap;rectStyle=rounded;size=10;html=1;container=1;expand=0;collapsible=0;taskMarker=abstract;" parent="RlkNxo-kqqhiC6b_-_8K-11" vertex="1">
          <mxGeometry x="450" y="13.5" width="120" height="36.5" as="geometry" />
        </mxCell>
        <mxCell id="RlkNxo-kqqhiC6b_-_8K-48" value="&amp;nbsp; &amp;nbsp; &amp;nbsp;Принять запрос и проверить корректность данных" style="points=[[0.25,0,0],[0.5,0,0],[0.75,0,0],[1,0.25,0],[1,0.5,0],[1,0.75,0],[0.75,1,0],[0.5,1,0],[0.25,1,0],[0,0.75,0],[0,0.5,0],[0,0.25,0]];shape=mxgraph.bpmn.task2;whiteSpace=wrap;rectStyle=rounded;size=10;html=1;container=1;expand=0;collapsible=0;taskMarker=service;" parent="RlkNxo-kqqhiC6b_-_8K-11" vertex="1">
          <mxGeometry x="120" y="44" width="110" height="60" as="geometry" />
        </mxCell>
        <mxCell id="RlkNxo-kqqhiC6b_-_8K-94" value="" style="points=[[0.145,0.145,0],[0.5,0,0],[0.855,0.145,0],[1,0.5,0],[0.855,0.855,0],[0.5,1,0],[0.145,0.855,0],[0,0.5,0]];shape=mxgraph.bpmn.event;html=1;verticalLabelPosition=bottom;labelBackgroundColor=#ffffff;verticalAlign=top;align=center;perimeter=ellipsePerimeter;outlineConnect=0;aspect=fixed;outline=end;symbol=terminate2;" parent="RlkNxo-kqqhiC6b_-_8K-11" vertex="1">
          <mxGeometry x="690" y="78" width="35" height="35" as="geometry" />
        </mxCell>
        <mxCell id="RlkNxo-kqqhiC6b_-_8K-96" value="" style="html=1;labelBackgroundColor=#ffffff;startArrow=none;startFill=0;startSize=7;endArrow=classic;endFill=1;endSize=4;jettySize=auto;orthogonalLoop=1;strokeWidth=1;dashed=1;fontSize=14;rounded=0;targetPerimeterSpacing=0;jumpSize=6;" parent="RlkNxo-kqqhiC6b_-_8K-11" edge="1">
          <mxGeometry width="60" height="60" relative="1" as="geometry">
            <mxPoint x="164" y="-34" as="sourcePoint" />
            <mxPoint x="163.62385321100874" y="43.5" as="targetPoint" />
          </mxGeometry>
        </mxCell>
        <mxCell id="RlkNxo-kqqhiC6b_-_8K-98" value="&amp;nbsp; Создание аккаунта&amp;nbsp;" style="points=[[0.25,0,0],[0.5,0,0],[0.75,0,0],[1,0.25,0],[1,0.5,0],[1,0.75,0],[0.75,1,0],[0.5,1,0],[0.25,1,0],[0,0.75,0],[0,0.5,0],[0,0.25,0]];shape=mxgraph.bpmn.task2;whiteSpace=wrap;rectStyle=rounded;size=10;html=1;container=1;expand=0;collapsible=0;taskMarker=service;" parent="RlkNxo-kqqhiC6b_-_8K-11" vertex="1">
          <mxGeometry x="450" y="56.5" width="120" height="36.5" as="geometry" />
        </mxCell>
        <mxCell id="RlkNxo-kqqhiC6b_-_8K-99" value="Создание дефолтной карты" style="points=[[0.25,0,0],[0.5,0,0],[0.75,0,0],[1,0.25,0],[1,0.5,0],[1,0.75,0],[0.75,1,0],[0.5,1,0],[0.25,1,0],[0,0.75,0],[0,0.5,0],[0,0.25,0]];shape=mxgraph.bpmn.task2;whiteSpace=wrap;rectStyle=rounded;size=10;html=1;container=1;expand=0;collapsible=0;taskMarker=service;" parent="RlkNxo-kqqhiC6b_-_8K-11" vertex="1">
          <mxGeometry x="450" y="99" width="120" height="36.5" as="geometry" />
        </mxCell>
        <mxCell id="RlkNxo-kqqhiC6b_-_8K-112" value="" style="edgeStyle=elbowEdgeStyle;fontSize=12;html=1;endFill=0;startFill=0;endSize=6;startSize=6;dashed=1;dashPattern=1 4;endArrow=openThin;startArrow=none;rounded=0;exitX=0;exitY=0.644;exitDx=0;exitDy=0;exitPerimeter=0;entryX=0;entryY=0.644;entryDx=0;entryDy=0;entryPerimeter=0;" parent="RlkNxo-kqqhiC6b_-_8K-11" source="RlkNxo-kqqhiC6b_-_8K-98" edge="1">
          <mxGeometry width="160" relative="1" as="geometry">
            <mxPoint x="410" y="180" as="sourcePoint" />
            <mxPoint x="370" y="220" as="targetPoint" />
          </mxGeometry>
        </mxCell>
        <mxCell id="RlkNxo-kqqhiC6b_-_8K-113" value="" style="points=[[0.25,0.25,0],[0.5,0,0],[0.75,0.25,0],[1,0.5,0],[0.75,0.75,0],[0.5,1,0],[0.25,0.75,0],[0,0.5,0]];shape=mxgraph.bpmn.gateway2;html=1;verticalLabelPosition=bottom;labelBackgroundColor=#ffffff;verticalAlign=top;align=center;perimeter=rhombusPerimeter;outlineConnect=0;outline=none;symbol=none;gwType=parallel;" parent="RlkNxo-kqqhiC6b_-_8K-11" vertex="1">
          <mxGeometry x="600" y="70.5" width="50" height="50" as="geometry" />
        </mxCell>
        <mxCell id="RlkNxo-kqqhiC6b_-_8K-115" value="" style="endArrow=classic;html=1;rounded=0;" parent="RlkNxo-kqqhiC6b_-_8K-11" source="RlkNxo-kqqhiC6b_-_8K-113" edge="1">
          <mxGeometry width="50" height="50" relative="1" as="geometry">
            <mxPoint x="668" y="95.33000000000004" as="sourcePoint" />
            <mxPoint x="690" y="95" as="targetPoint" />
          </mxGeometry>
        </mxCell>
        <mxCell id="RlkNxo-kqqhiC6b_-_8K-122" value="" style="endArrow=classic;html=1;rounded=0;exitX=0.992;exitY=0.553;exitDx=0;exitDy=0;exitPerimeter=0;entryX=0.5;entryY=1;entryDx=0;entryDy=0;entryPerimeter=0;" parent="RlkNxo-kqqhiC6b_-_8K-11" source="RlkNxo-kqqhiC6b_-_8K-99" target="RlkNxo-kqqhiC6b_-_8K-113" edge="1">
          <mxGeometry width="50" height="50" relative="1" as="geometry">
            <mxPoint x="580" y="140" as="sourcePoint" />
            <mxPoint x="630" y="90" as="targetPoint" />
          </mxGeometry>
        </mxCell>
        <mxCell id="RlkNxo-kqqhiC6b_-_8K-123" value="" style="endArrow=classic;html=1;rounded=0;exitX=0.992;exitY=0.553;exitDx=0;exitDy=0;exitPerimeter=0;entryX=0.5;entryY=0;entryDx=0;entryDy=0;entryPerimeter=0;" parent="RlkNxo-kqqhiC6b_-_8K-11" target="RlkNxo-kqqhiC6b_-_8K-113" edge="1">
          <mxGeometry width="50" height="50" relative="1" as="geometry">
            <mxPoint x="570" y="70.5" as="sourcePoint" />
            <mxPoint x="626" y="72.5" as="targetPoint" />
          </mxGeometry>
        </mxCell>
        <mxCell id="RlkNxo-kqqhiC6b_-_8K-101" value="&lt;span style=&quot;text-wrap-mode: wrap;&quot;&gt;Postgres&amp;nbsp;&lt;/span&gt;������" style="swimlane;html=1;startSize=20;horizontal=0;" parent="RlkNxo-kqqhiC6b_-_8K-11" vertex="1">
          <mxGeometry y="160" width="730" height="120" as="geometry">
            <mxRectangle x="20" width="490" height="30" as="alternateBounds" />
          </mxGeometry>
        </mxCell>
        <mxCell id="RlkNxo-kqqhiC6b_-_8K-124" value="Создание во всех таблицах пользователя" style="points=[[0.25,0,0],[0.5,0,0],[0.75,0,0],[1,0.25,0],[1,0.5,0],[1,0.75,0],[0.75,1,0],[0.5,1,0],[0.25,1,0],[0,0.75,0],[0,0.5,0],[0,0.25,0]];shape=mxgraph.bpmn.task2;whiteSpace=wrap;rectStyle=rounded;size=10;html=1;container=1;expand=0;collapsible=0;bpmnShapeType=call;taskMarker=businessRule;" parent="RlkNxo-kqqhiC6b_-_8K-101" vertex="1">
          <mxGeometry x="220" y="35.76" width="150" height="50" as="geometry" />
        </mxCell>
        <mxCell id="RlkNxo-kqqhiC6b_-_8K-125" value="" style="edgeStyle=elbowEdgeStyle;fontSize=12;html=1;endFill=0;startFill=0;endSize=6;startSize=6;dashed=1;dashPattern=1 4;endArrow=openThin;startArrow=none;rounded=0;exitX=0.5;exitY=1;exitDx=0;exitDy=0;exitPerimeter=0;" parent="RlkNxo-kqqhiC6b_-_8K-101" edge="1">
          <mxGeometry width="160" relative="1" as="geometry">
            <mxPoint x="490" y="-24.5" as="sourcePoint" />
            <mxPoint x="555" y="70" as="targetPoint" />
          </mxGeometry>
        </mxCell>
        <mxCell id="RlkNxo-kqqhiC6b_-_8K-127" value="&amp;nbsp; &amp;nbsp; &amp;nbsp; &amp;nbsp;Создание уникального айди карты в таблице&amp;nbsp;" style="points=[[0.25,0,0],[0.5,0,0],[0.75,0,0],[1,0.25,0],[1,0.5,0],[1,0.75,0],[0.75,1,0],[0.5,1,0],[0.25,1,0],[0,0.75,0],[0,0.5,0],[0,0.25,0]];shape=mxgraph.bpmn.task2;whiteSpace=wrap;rectStyle=rounded;size=10;html=1;container=1;expand=0;collapsible=0;bpmnShapeType=call;taskMarker=businessRule;" parent="RlkNxo-kqqhiC6b_-_8K-101" vertex="1">
          <mxGeometry x="560" y="45.75999999999999" width="150" height="50" as="geometry" />
        </mxCell>
      </root>
    </mxGraphModel>
  </diagram>
</mxfile>
